<svg width="16" height="17" viewBox="0 0 16 17" fill="none" xmlns="http://www.w3.org/2000/svg">
<path fill-rule="evenodd" clip-rule="evenodd" d="M4.94333 14.11L2.39067 11.5573C2.14067 11.3073 2 10.968 2 10.6147V6.38533C2 6.032 2.14067 5.69267 2.39 5.44333L4.94267 2.89067C5.19267 2.64067 5.532 2.5 5.88533 2.5H10.1133C10.4673 2.5 10.8067 2.64067 11.0567 2.89067L13.6087 5.44267C13.8593 5.69333 14 6.03333 14 6.38733V10.614C14 10.9673 13.8593 11.306 13.61 11.556L11.0573 14.1093C10.8073 14.3593 10.468 14.5 10.114 14.5H5.88533C5.532 14.5 5.19267 14.3593 4.94333 14.11V14.11Z" stroke="#B10017" stroke-linecap="round" stroke-linejoin="round"/>
<path d="M3.83398 12.666L12.166 4.33398" stroke="#B10017" stroke-linecap="round" stroke-linejoin="round"/>
</svg>
