<svg width="66" height="67" viewBox="0 0 16 17" fill="none" xmlns="http://www.w3.org/2000/svg">
<path d="M13.2871 5.25757C13.5632 5.25757 13.7871 5.03371 13.7871 4.75757C13.7871 4.48143 13.5632 4.25757 13.2871 4.25757V5.25757ZM8.14209 4.25757C7.86595 4.25757 7.64209 4.48143 7.64209 4.75757C7.64209 5.03371 7.86595 5.25757 8.14209 5.25757V4.25757ZM13.2871 4.25757H8.14209V5.25757H13.2871V4.25757Z" fill="#160042"/>
<path d="M13.2871 9.42236C13.5632 9.42236 13.7871 9.19851 13.7871 8.92236C13.7871 8.64622 13.5632 8.42236 13.2871 8.42236V9.42236ZM8.14209 8.42236C7.86595 8.42236 7.64209 8.64622 7.64209 8.92236C7.64209 9.19851 7.86595 9.42236 8.14209 9.42236V8.42236ZM13.2871 8.42236H8.14209V9.42236H13.2871V8.42236Z" fill="#160042"/>
<path d="M13.29 13.5874C13.5661 13.5874 13.79 13.3635 13.79 13.0874C13.79 12.8113 13.5661 12.5874 13.29 12.5874V13.5874ZM3 12.5874C2.72386 12.5874 2.5 12.8113 2.5 13.0874C2.5 13.3635 2.72386 13.5874 3 13.5874V12.5874ZM13.29 12.5874H3V13.5874H13.29V12.5874Z" fill="#160042"/>
<path d="M3.00094 8.92236L4.96094 6.96236L3.00094 5.00236" stroke="#160042" stroke-linecap="round" stroke-linejoin="round"/>
</svg>
