<svg width="64" height="64" viewBox="0 0 64 64" fill="none" xmlns="http://www.w3.org/2000/svg">
<path d="M34.6673 23.9961C34.6673 26.944 28.6968 29.3316 21.3311 29.3316C13.9627 29.3316 7.99219 26.944 7.99219 23.9961" stroke="#CE0058" stroke-width="3" stroke-linecap="round" stroke-linejoin="round"/>
<path d="M34.6673 23.9961C34.6673 26.944 28.6968 29.3316 21.3311 29.3316C13.9627 29.3316 7.99219 26.944 7.99219 23.9961" stroke="black" stroke-opacity="0.2" stroke-width="3" stroke-linecap="round" stroke-linejoin="round"/>
<path d="M21.3284 40.0035C13.9627 40.0035 7.99219 37.6159 7.99219 34.668" stroke="#CE0058" stroke-width="3" stroke-linecap="round" stroke-linejoin="round"/>
<path d="M21.3284 40.0035C13.9627 40.0035 7.99219 37.6159 7.99219 34.668" stroke="black" stroke-opacity="0.2" stroke-width="3" stroke-linecap="round" stroke-linejoin="round"/>
<path d="M34.6646 13.3242H34.6673V29.3309" stroke="#CE0058" stroke-width="3" stroke-linecap="round" stroke-linejoin="round"/>
<path d="M34.6646 13.3242H34.6673V29.3309" stroke="black" stroke-opacity="0.2" stroke-width="3" stroke-linecap="round" stroke-linejoin="round"/>
<path d="M55.9999 40.0035C56.0052 37.0556 50.0294 34.668 42.6663 34.668C35.3032 34.668 29.3274 37.0556 29.3301 40.0035C29.3301 42.9514 35.3006 45.3391 42.669 45.3391C50.0374 45.3391 56.0079 42.9514 56.0079 40.0035" stroke="#CE0058" stroke-width="3" stroke-linecap="round" stroke-linejoin="round"/>
<path d="M55.9999 40.0035C56.0052 37.0556 50.0294 34.668 42.6663 34.668C35.3032 34.668 29.3274 37.0556 29.3301 40.0035C29.3301 42.9514 35.3006 45.3391 42.669 45.3391C50.0374 45.3391 56.0079 42.9514 56.0079 40.0035" stroke="black" stroke-opacity="0.2" stroke-width="3" stroke-linecap="round" stroke-linejoin="round"/>
<path d="M56.0052 40.002V50.6731C56.0052 53.621 50.0347 56.0086 42.669 56.0086C35.3006 56.0086 29.3301 53.621 29.3301 50.6731V40.002" stroke="#CE0058" stroke-width="3" stroke-linecap="round" stroke-linejoin="round"/>
<path d="M56.0052 40.002V50.6731C56.0052 53.621 50.0347 56.0086 42.669 56.0086C35.3006 56.0086 29.3301 53.621 29.3301 50.6731V40.002" stroke="black" stroke-opacity="0.2" stroke-width="3" stroke-linecap="round" stroke-linejoin="round"/>
<path d="M21.3291 50.6734C13.9634 50.6734 7.99023 48.2858 7.99023 45.3379" stroke="#CE0058" stroke-width="3" stroke-linecap="round" stroke-linejoin="round"/>
<path d="M21.3291 50.6734C13.9634 50.6734 7.99023 48.2858 7.99023 45.3379" stroke="black" stroke-opacity="0.2" stroke-width="3" stroke-linecap="round" stroke-linejoin="round"/>
<ellipse cx="21.3291" cy="13.3258" rx="13.3389" ry="5.33556" stroke="#CE0058" stroke-width="3" stroke-linecap="round" stroke-linejoin="round"/>
<ellipse cx="21.3291" cy="13.3258" rx="13.3389" ry="5.33556" stroke="black" stroke-opacity="0.2" stroke-width="3" stroke-linecap="round" stroke-linejoin="round"/>
<path d="M7.99014 13.3242V45.3376" stroke="#CE0058" stroke-width="3" stroke-linecap="round" stroke-linejoin="round"/>
<path d="M7.99014 13.3242V45.3376" stroke="black" stroke-opacity="0.2" stroke-width="3" stroke-linecap="round" stroke-linejoin="round"/>
<path d="M48.0077 13.3242V26.6631" stroke="#CE0058" stroke-width="3" stroke-linecap="round" stroke-linejoin="round"/>
<path d="M48.0077 13.3242V26.6631" stroke="black" stroke-opacity="0.2" stroke-width="3" stroke-linecap="round" stroke-linejoin="round"/>
<path d="M53.343 18.6598L48.0074 13.3242L42.6719 18.6598" stroke="#CE0058" stroke-width="3" stroke-linecap="round" stroke-linejoin="round"/>
<path d="M53.343 18.6598L48.0074 13.3242L42.6719 18.6598" stroke="black" stroke-opacity="0.2" stroke-width="3" stroke-linecap="round" stroke-linejoin="round"/>
</svg>
