<svg width="22" height="22" viewBox="0 0 22 22" fill="none" xmlns="http://www.w3.org/2000/svg">
<path d="M11.834 8.49805C11.834 9.41926 9.96824 10.1654 7.66645 10.1654C5.36382 10.1654 3.49805 9.41926 3.49805 8.49805" stroke="white" stroke-width="1.25" stroke-linecap="round" stroke-linejoin="round"/>
<path d="M7.66562 13.4994C5.36382 13.4994 3.49805 12.7532 3.49805 11.832" stroke="white" stroke-width="1.25" stroke-linecap="round" stroke-linejoin="round"/>
<path d="M11.8334 5.16406H11.8342V10.1661" stroke="white" stroke-width="1.25" stroke-linecap="round" stroke-linejoin="round"/>
<path d="M18.5013 13.4994C18.503 12.5782 16.6355 11.832 14.3346 11.832C12.0336 11.832 10.1662 12.5782 10.167 13.4994C10.167 14.4206 12.0328 15.1668 14.3354 15.1668C16.638 15.1668 18.5038 14.4206 18.5038 13.4994" stroke="white" stroke-width="1.25" stroke-linecap="round" stroke-linejoin="round"/>
<path d="M18.503 13.502V16.8367C18.503 17.7579 16.6372 18.504 14.3354 18.504C12.0328 18.504 10.167 17.7579 10.167 16.8367V13.502" stroke="white" stroke-width="1.25" stroke-linecap="round" stroke-linejoin="round"/>
<path d="M7.66547 16.8353C5.36368 16.8353 3.49707 16.0892 3.49707 15.168" stroke="white" stroke-width="1.25" stroke-linecap="round" stroke-linejoin="round"/>
<ellipse cx="7.66547" cy="5.16346" rx="4.1684" ry="1.66736" stroke="white" stroke-width="1.25" stroke-linecap="round" stroke-linejoin="round"/>
<path d="M3.49789 5.16406V15.1682" stroke="white" stroke-width="1.25" stroke-linecap="round" stroke-linejoin="round"/>
<path d="M16.0028 5.16406V9.33247" stroke="white" stroke-width="1.25" stroke-linecap="round" stroke-linejoin="round"/>
<path d="M17.6697 6.83142L16.0023 5.16406L14.335 6.83142" stroke="white" stroke-width="1.25" stroke-linecap="round" stroke-linejoin="round"/>
</svg>
