<svg xmlns="http://www.w3.org/2000/svg" fill="none" viewBox="0 0 16 16">
  <path stroke="currentColor" stroke-linecap="round" stroke-linejoin="round" d="M8.667 5.999c0 .737-1.493 1.334-3.334 1.334-1.842 0-3.335-.597-3.335-1.334M5.332 10c-1.841 0-3.334-.596-3.334-1.333m6.668-5.336h0v4.002M14 10c.002-.736-1.492-1.333-3.333-1.333-1.84 0-3.335.597-3.334 1.334 0 .737 1.493 1.334 3.335 1.334 1.842 0 3.335-.597 3.335-1.334"/>
  <path stroke="currentColor" stroke-linecap="round" stroke-linejoin="round" d="M14.002 10v2.668c0 .738-1.493 1.334-3.334 1.334-1.842 0-3.335-.597-3.335-1.334v-2.667m-2.001 2.667c-1.842 0-3.335-.597-3.335-1.333"/>
  <ellipse cx="5.332" cy="3.331" stroke="currentColor" stroke-linecap="round" stroke-linejoin="round" rx="3.335" ry="1.334"/>
  <path stroke="currentColor" stroke-linecap="round" stroke-linejoin="round" d="M1.998 3.331v8.004m10.003-8.004v3.335m1.334-2.001L12 3.331l-1.334 1.334"/>
</svg>
