<svg width="62" height="62" viewBox="0 0 62 62" fill="none" xmlns="http://www.w3.org/2000/svg">
<path d="M26.2809 35.7934C27.6395 37.152 27.6395 39.3548 26.2809 40.7135C24.9222 42.0722 22.7195 42.0722 21.3608 40.7135C20.0021 39.3549 20.0021 37.1521 21.3608 35.7934C22.7194 34.4348 24.9222 34.4348 26.2809 35.7934" stroke="#CE0058" stroke-width="3" stroke-linecap="round" stroke-linejoin="round"/>
<path d="M26.2809 35.7934C27.6395 37.152 27.6395 39.3548 26.2809 40.7135C24.9222 42.0722 22.7195 42.0722 21.3608 40.7135C20.0021 39.3549 20.0021 37.1521 21.3608 35.7934C22.7194 34.4348 24.9222 34.4348 26.2809 35.7934" stroke="black" stroke-opacity="0.2" stroke-width="3" stroke-linecap="round" stroke-linejoin="round"/>
<path fill-rule="evenodd" clip-rule="evenodd" d="M28.3479 23.9002L30.6954 24.6835C31.233 24.8627 31.5966 25.367 31.5966 25.9328V28.183C31.5966 29.4605 32.618 30.505 33.8954 30.5331L36.0254 30.5792C36.5143 30.5894 36.9546 30.8685 37.1748 31.3062L38.2807 33.5181C38.5342 34.025 38.4343 34.6368 38.035 35.0387L36.4426 36.6285C35.539 37.5322 35.5236 38.9939 36.4068 39.9155L37.8788 41.4541C38.2167 41.8074 38.3319 42.3168 38.1758 42.7802L37.3924 45.1277C37.2132 45.6653 36.7089 46.0288 36.1431 46.0288H33.8929C32.6154 46.0288 31.571 47.0502 31.5428 48.3277L31.4967 50.4576C31.4865 50.9466 31.2074 51.3869 30.7697 51.607L28.5578 52.713C28.051 52.9664 27.4391 52.8666 27.0372 52.4672L25.4474 50.8749C24.5438 49.9712 23.082 49.9558 22.1604 50.839L20.6218 52.311C20.2686 52.649 19.7591 52.7642 19.2958 52.608L16.9482 51.8246C16.4106 51.6454 16.0471 51.1411 16.0471 50.5754V48.3251C16.0471 47.0477 15.0257 46.0032 13.7482 45.975L11.6209 45.929C11.1319 45.9187 10.6916 45.6397 10.4714 45.2019L9.36551 42.9901C9.11207 42.4832 9.21191 41.8714 9.61127 41.4694L11.2036 39.8797C12.1073 38.976 12.1226 37.5142 11.2394 36.5926L9.76743 35.0541C9.42951 34.7008 9.31431 34.1914 9.47047 33.728L10.2538 31.3805C10.433 30.8429 10.9374 30.4794 11.5031 30.4794H13.7534C15.0308 30.4794 16.0753 29.4579 16.1034 28.1805L16.1495 26.0506C16.1598 25.5616 16.4388 25.1213 16.8766 24.9011L19.0884 23.7952C19.5953 23.5418 20.2071 23.6416 20.609 24.041L22.1988 25.6333C23.1025 26.537 24.5642 26.5523 25.4858 25.6691L27.0244 24.1971C27.3726 23.8618 27.8846 23.7466 28.3479 23.9002Z" stroke="#CE0058" stroke-width="3" stroke-linecap="round" stroke-linejoin="round"/>
<path fill-rule="evenodd" clip-rule="evenodd" d="M28.3479 23.9002L30.6954 24.6835C31.233 24.8627 31.5966 25.367 31.5966 25.9328V28.183C31.5966 29.4605 32.618 30.505 33.8954 30.5331L36.0254 30.5792C36.5143 30.5894 36.9546 30.8685 37.1748 31.3062L38.2807 33.5181C38.5342 34.025 38.4343 34.6368 38.035 35.0387L36.4426 36.6285C35.539 37.5322 35.5236 38.9939 36.4068 39.9155L37.8788 41.4541C38.2167 41.8074 38.3319 42.3168 38.1758 42.7802L37.3924 45.1277C37.2132 45.6653 36.7089 46.0288 36.1431 46.0288H33.8929C32.6154 46.0288 31.571 47.0502 31.5428 48.3277L31.4967 50.4576C31.4865 50.9466 31.2074 51.3869 30.7697 51.607L28.5578 52.713C28.051 52.9664 27.4391 52.8666 27.0372 52.4672L25.4474 50.8749C24.5438 49.9712 23.082 49.9558 22.1604 50.839L20.6218 52.311C20.2686 52.649 19.7591 52.7642 19.2958 52.608L16.9482 51.8246C16.4106 51.6454 16.0471 51.1411 16.0471 50.5754V48.3251C16.0471 47.0477 15.0257 46.0032 13.7482 45.975L11.6209 45.929C11.1319 45.9187 10.6916 45.6397 10.4714 45.2019L9.36551 42.9901C9.11207 42.4832 9.21191 41.8714 9.61127 41.4694L11.2036 39.8797C12.1073 38.976 12.1226 37.5142 11.2394 36.5926L9.76743 35.0541C9.42951 34.7008 9.31431 34.1914 9.47047 33.728L10.2538 31.3805C10.433 30.8429 10.9374 30.4794 11.5031 30.4794H13.7534C15.0308 30.4794 16.0753 29.4579 16.1034 28.1805L16.1495 26.0506C16.1598 25.5616 16.4388 25.1213 16.8766 24.9011L19.0884 23.7952C19.5953 23.5418 20.2071 23.6416 20.609 24.041L22.1988 25.6333C23.1025 26.537 24.5642 26.5523 25.4858 25.6691L27.0244 24.1971C27.3726 23.8618 27.8846 23.7466 28.3479 23.9002Z" stroke="black" stroke-opacity="0.2" stroke-width="3" stroke-linecap="round" stroke-linejoin="round"/>
<path fill-rule="evenodd" clip-rule="evenodd" d="M46.9102 26.6442L48.948 26.0963C49.3601 25.9863 49.6699 25.6432 49.739 25.2208L50.1256 22.8426C50.2382 22.1539 50.7784 21.6138 51.467 21.5011L53.8427 21.1146C54.2651 21.0455 54.6081 20.7357 54.7182 20.3235L55.266 18.2858C55.3761 17.8711 55.2353 17.4333 54.9025 17.1619L53.0363 15.6362C52.4961 15.1933 52.299 14.456 52.5448 13.8032L53.4024 11.5453C53.5534 11.1459 53.4587 10.6928 53.154 10.3907L51.6616 8.90083C51.3595 8.59875 50.9064 8.50147 50.507 8.65251L47.1585 9.92227L44.8955 7.15235C44.6241 6.81955 44.1838 6.67875 43.7716 6.78883L41.7339 7.33667C41.3217 7.44675 41.012 7.78979 40.9428 8.21219L40.5563 10.5904C40.4436 11.2791 39.9035 11.8192 39.2148 11.9319L36.8392 12.3184C36.4168 12.3875 36.0737 12.6973 35.9636 13.1095L35.4158 15.1472C35.3057 15.5594 35.4465 15.9997 35.7768 16.2711L37.6404 17.7943C38.1806 18.2371 38.3777 18.9744 38.1294 19.6272L37.2718 21.8851C37.1208 22.2845 37.2155 22.7376 37.5201 23.0397L39.0126 24.5322C39.3147 24.8343 39.7678 24.9315 40.1672 24.7805L42.4276 23.9229C43.0804 23.6746 43.8177 23.8743 44.258 24.4144L45.7838 26.2807C46.0577 26.6135 46.498 26.7543 46.9102 26.6442V26.6442Z" stroke="#CE0058" stroke-width="3" stroke-linecap="round" stroke-linejoin="round"/>
<path fill-rule="evenodd" clip-rule="evenodd" d="M46.9102 26.6442L48.948 26.0963C49.3601 25.9863 49.6699 25.6432 49.739 25.2208L50.1256 22.8426C50.2382 22.1539 50.7784 21.6138 51.467 21.5011L53.8427 21.1146C54.2651 21.0455 54.6081 20.7357 54.7182 20.3235L55.266 18.2858C55.3761 17.8711 55.2353 17.4333 54.9025 17.1619L53.0363 15.6362C52.4961 15.1933 52.299 14.456 52.5448 13.8032L53.4024 11.5453C53.5534 11.1459 53.4587 10.6928 53.154 10.3907L51.6616 8.90083C51.3595 8.59875 50.9064 8.50147 50.507 8.65251L47.1585 9.92227L44.8955 7.15235C44.6241 6.81955 44.1838 6.67875 43.7716 6.78883L41.7339 7.33667C41.3217 7.44675 41.012 7.78979 40.9428 8.21219L40.5563 10.5904C40.4436 11.2791 39.9035 11.8192 39.2148 11.9319L36.8392 12.3184C36.4168 12.3875 36.0737 12.6973 35.9636 13.1095L35.4158 15.1472C35.3057 15.5594 35.4465 15.9997 35.7768 16.2711L37.6404 17.7943C38.1806 18.2371 38.3777 18.9744 38.1294 19.6272L37.2718 21.8851C37.1208 22.2845 37.2155 22.7376 37.5201 23.0397L39.0126 24.5322C39.3147 24.8343 39.7678 24.9315 40.1672 24.7805L42.4276 23.9229C43.0804 23.6746 43.8177 23.8743 44.258 24.4144L45.7838 26.2807C46.0577 26.6135 46.498 26.7543 46.9102 26.6442V26.6442Z" stroke="black" stroke-opacity="0.2" stroke-width="3" stroke-linecap="round" stroke-linejoin="round"/>
</svg>
