<svg width="24" height="24" viewBox="0 0 24 24" fill="none" xmlns="http://www.w3.org/2000/svg">
<path fill-rule="evenodd" clip-rule="evenodd" d="M22 5.00391V18.9999C22 20.1049 21.105 20.9999 20 20.9999H4C2.895 20.9999 2 20.1049 2 18.9999V5.03791C2 3.93491 2.893 3.03991 3.996 3.03791L19.996 3.00391C21.102 3.00191 22 3.89791 22 5.00391Z" stroke="currentColor" stroke-width="1.5" stroke-linecap="round" stroke-linejoin="round"/>
<path d="M8 5.99012C7.997 5.99012 7.995 5.99212 7.995 5.99512C7.995 5.99812 7.997 6.00012 8 6.00012C8.003 6.00012 8.005 5.99812 8.005 5.99512C8.005 5.99212 8.003 5.99012 8 5.99012" stroke="currentColor" stroke-width="1.5" stroke-linecap="round" stroke-linejoin="round"/>
<path d="M11.0049 5.995C11.0019 5.995 10.9999 5.997 10.9999 6C10.9999 6.003 11.0019 6.005 11.0049 6.005C11.0079 6.005 11.0099 6.003 11.0099 6C11.0099 5.997 11.0079 5.995 11.0049 5.995" stroke="currentColor" stroke-width="1.5" stroke-linecap="round" stroke-linejoin="round"/>
<path d="M5 5.99988C4.997 5.99988 4.995 6.00188 4.995 6.00488C4.995 6.00788 4.997 6.00988 5 6.00988C5.003 6.00988 5.005 6.00788 5.005 6.00488C5.005 6.00188 5.003 5.99988 5 5.99988" stroke="currentColor" stroke-width="1.5" stroke-linecap="round" stroke-linejoin="round"/>
<path opacity="0.4" d="M9.05 11.25H15.45L14.75 14.75H9.75L8.75 9.75H7.5" stroke="currentColor" stroke-width="1.5" stroke-linecap="round" stroke-linejoin="round"/>
<path opacity="0.4" d="M14.2854 17.2146C14.3049 17.2342 14.3049 17.2658 14.2854 17.2854C14.2658 17.3049 14.2342 17.3049 14.2146 17.2854C14.1951 17.2658 14.1951 17.2342 14.2146 17.2146C14.2342 17.1951 14.2658 17.1951 14.2854 17.2146" stroke="currentColor" stroke-width="1.5" stroke-linecap="round" stroke-linejoin="round"/>
<path opacity="0.4" d="M10.2854 17.2146C10.3049 17.2342 10.3049 17.2658 10.2854 17.2854C10.2658 17.3049 10.2342 17.3049 10.2146 17.2854C10.1951 17.2658 10.1951 17.2342 10.2146 17.2146C10.2342 17.1951 10.2658 17.1951 10.2854 17.2146" stroke="currentColor" stroke-width="1.5" stroke-linecap="round" stroke-linejoin="round"/>
</svg>
