<svg xmlns="http://www.w3.org/2000/svg" fill="none" viewBox="0 0 12 12">
  <path stroke="currentColor" stroke-linecap="round" stroke-linejoin="round" d="M.667 8.842V5.439c0-.676.312-1.315.846-1.73l2.951-2.296a2.192 2.192 0 0 1 2.691 0l2.952 2.296c.534.415.846 1.054.846 1.73v3.403c0 1.21-.982 2.192-2.192 2.192h-.65a.586.586 0 0 1-.587-.586V8.67c0-.2-.033-.404-.139-.574a1.853 1.853 0 0 0-1.575-.873 1.859 1.859 0 0 0-1.576.873c-.106.17-.138.373-.138.574v1.777a.586.586 0 0 1-.586.586h-.651A2.192 2.192 0 0 1 .667 8.842Z"/>
</svg>
