<svg width="16" height="17" viewBox="0 0 16 17" fill="none" xmlns="http://www.w3.org/2000/svg">
<path fill-rule="evenodd" clip-rule="evenodd" d="M9.15535 8.52195C9.63735 8.10395 9.89135 7.42995 9.70135 6.71062C9.54602 6.12128 9.06335 5.63995 8.47335 5.48662C7.29469 5.17995 6.23535 6.06128 6.23535 7.18995C6.23535 7.72262 6.47202 8.19928 6.84535 8.52262C6.94868 8.61195 7.00135 8.74595 6.96335 8.87795L6.35668 11.0006C6.29602 11.2126 6.45602 11.4246 6.67735 11.4246H9.32269C9.54402 11.4246 9.70469 11.2159 9.64402 11.0026C9.47335 10.4053 9.16735 9.33328 9.03669 8.87595C8.99869 8.74462 9.05202 8.61128 9.15535 8.52195V8.52195Z" stroke="currentColor" stroke-linecap="round" stroke-linejoin="round"/>
<path fill-rule="evenodd" clip-rule="evenodd" d="M8 14.4246C11.3137 14.4246 14 11.7383 14 8.42456C14 5.11085 11.3137 2.42456 8 2.42456C4.68629 2.42456 2 5.11085 2 8.42456C2 11.7383 4.68629 14.4246 8 14.4246Z" stroke="currentColor" stroke-linecap="round" stroke-linejoin="round"/>
</svg>
