<svg width="16" height="17" viewBox="0 0 16 17" fill="none" xmlns="http://www.w3.org/2000/svg">
<path d="M11.3428 12.1011L12.9935 13.7518" stroke="currentColor" stroke-linecap="round" stroke-linejoin="round"/>
<path d="M11.3428 13.751L12.9935 12.1003" stroke="currentColor" stroke-linecap="round" stroke-linejoin="round"/>
<path d="M8.667 14.7188C8.44574 14.7462 8.22301 14.7601 8.00006 14.7601C4.68497 14.7601 1.99756 12.0727 1.99756 8.75763C1.99756 5.44254 4.68497 2.75513 8.00006 2.75513C11.3151 2.75513 14.0026 5.44254 14.0026 8.75763C14.0026 8.98058 13.9886 9.20331 13.9612 9.42457" stroke="currentColor" stroke-linecap="round" stroke-linejoin="round"/>
<path d="M8.82845 8.01652C8.87445 8.01652 8.91178 7.97919 8.91178 7.93319C8.91178 7.88719 8.87378 7.84985 8.82845 7.84985C8.78245 7.84985 8.74512 7.88719 8.74512 7.93319C8.74512 7.97919 8.78245 8.01652 8.82845 8.01652" stroke="currentColor" stroke-linecap="round" stroke-linejoin="round"/>
<path d="M6.77123 8.58557C6.53523 7.83757 6.70189 6.98824 7.29323 6.39424C8.13989 5.54557 9.51256 5.54491 10.3599 6.39291C11.2072 7.24024 11.2092 8.61691 10.3639 9.46624C9.76989 10.0616 8.91923 10.2302 8.17056 9.99091L8.16589 9.99491L6.69723 11.4662C6.30989 11.8542 5.68123 11.8542 5.29389 11.4662C4.90789 11.0796 4.90789 10.4529 5.29389 10.0656L6.76256 8.59424" stroke="currentColor" stroke-linecap="round" stroke-linejoin="round"/>
</svg>
