<svg width="87" height="40" viewBox="0 0 87 40" fill="none" xmlns="http://www.w3.org/2000/svg">
<path fill-rule="evenodd" clip-rule="evenodd" d="M69.6128 20.4211C69.167 20.3033 68.7699 20.0477 68.4781 19.6907C68.1863 19.3338 68.0147 18.8938 67.9879 18.4335C67.8494 16.0449 70.7044 16.0644 72.4452 15.4068C77.9039 13.3455 81.7162 8.74974 83.9446 3.17358C78.0434 12.7439 71.1758 11.4063 66.1959 13.8635C63.147 15.3663 61.2478 17.4016 62.5324 20.654C64.1602 24.7709 67.0123 29.4759 71.0885 34.7691C75.8982 28.5234 79.0036 23.0964 80.4047 18.4883C81.3903 16.1613 81.4729 13.5504 80.6365 11.1657C79.5538 12.2826 78.3907 13.3188 77.1566 14.2659C77.1603 14.353 77.1622 14.4406 77.1622 14.5286C77.1614 15.4462 76.9529 16.3517 76.5523 17.1772C76.1516 18.0028 75.5692 18.7268 74.8489 19.2952C74.1285 19.8636 73.2888 20.2614 72.3927 20.459C71.4966 20.6566 70.5674 20.6487 69.6748 20.4359L69.6653 20.4336L69.6515 20.4303L69.6343 20.426L69.6132 20.4207L69.6128 20.4211ZM78.3973 7.52926C77.2829 8.41023 76.0516 9.13214 74.7386 9.67429C73.9579 9.08753 73.0473 8.69763 72.0838 8.53764C71.1204 8.37764 70.1326 8.45227 69.2042 8.7552C68.2757 9.05813 67.434 9.58043 66.7503 10.2778C66.0666 10.9752 65.5612 11.8272 65.2767 12.7614C63.5077 13.6982 62.1942 14.9837 61.187 16.6313C60.7298 14.4781 60.9871 12.2345 61.9198 10.2406C62.8525 8.24679 64.4098 6.61137 66.3557 5.58228C68.3015 4.55318 70.5298 4.18652 72.7028 4.53786C74.8758 4.8892 76.875 5.9394 78.3974 7.52926H78.3973Z" fill="url(#paint0_linear_9_541)"/>
<path d="M84.6606 1.65061C84.5855 1.61784 84.5118 1.58434 84.4367 1.55365C84.3992 1.53868 84.3607 1.52618 84.3216 1.51624C84.2179 1.4889 84.1139 1.46252 84.0098 1.4371C83.8499 1.39817 83.6896 1.36116 83.5302 1.32167C83.4742 1.30776 83.4183 1.29041 83.3635 1.27227C83.3446 1.26586 83.3286 1.25268 83.3188 1.23526C83.309 1.21783 83.3059 1.19739 83.3103 1.17786C83.3182 1.11555 83.3414 1.05616 83.3777 1.00496C83.4049 0.968781 83.4404 0.939674 83.4812 0.920098C83.522 0.900522 83.5669 0.891052 83.6121 0.892488C83.7335 0.890889 83.855 0.895765 83.9764 0.897204C84.0782 0.898403 84.1801 0.897924 84.282 0.899363C84.3929 0.900961 84.5039 0.903759 84.6148 0.906397C84.7088 0.908635 84.8029 0.911913 84.8969 0.913751C84.9672 0.91511 85.0375 0.91535 85.1078 0.91527C85.1387 0.91295 85.1683 0.902346 85.1936 0.884576C85.219 0.866807 85.239 0.842531 85.2517 0.81431C85.3463 0.668985 85.4404 0.52342 85.538 0.380173C85.6001 0.279283 85.6793 0.19001 85.772 0.116381C85.8224 0.077981 85.8764 0.0446205 85.9333 0.0167799C85.9558 0.00493247 85.9809 -0.000820608 86.0063 9.4345e-05C86.0317 0.0010093 86.0564 0.00856031 86.0779 0.0219944C86.0995 0.0354286 86.1171 0.0542764 86.1291 0.0766585C86.1411 0.0990406 86.147 0.124175 86.1463 0.149555C86.1505 0.242384 86.1309 0.334751 86.0894 0.417903C86.0535 0.493328 86.013 0.566451 85.968 0.63685C85.906 0.735092 85.8391 0.830217 85.7734 0.926062C85.7415 0.972505 85.7082 1.01791 85.6746 1.06307C85.6511 1.09271 85.6371 1.12873 85.6345 1.16643C85.6318 1.20413 85.6405 1.24177 85.6595 1.27443C85.7108 1.37595 85.7643 1.47619 85.8159 1.57755C85.9354 1.81251 86.0545 2.0476 86.1734 2.28283C86.2133 2.36149 86.2533 2.44015 86.292 2.51928C86.3037 2.54393 86.3139 2.56929 86.3225 2.59522C86.3305 2.61597 86.333 2.63844 86.3298 2.66046C86.3266 2.68248 86.3178 2.7033 86.3042 2.72088C86.2682 2.76975 86.2286 2.81584 86.1858 2.85877C86.1081 2.93288 86.0722 2.91625 86.0047 2.85446C85.9612 2.81073 85.9202 2.76467 85.8817 2.71649C85.776 2.59605 85.6705 2.4755 85.5651 2.35485C85.5066 2.28771 85.4517 2.21744 85.3912 2.15229C85.3193 2.06608 85.2283 1.99784 85.1254 1.95301C85.121 1.95181 85.1164 1.95168 85.1119 1.95264C85.1074 1.9536 85.1033 1.95562 85.0997 1.95853C85.0699 1.99554 85.0416 2.03375 85.0132 2.0718C84.9476 2.15909 84.8822 2.24641 84.8169 2.33375C84.7529 2.41992 84.6882 2.50593 84.625 2.59282C84.5909 2.63967 84.592 2.64079 84.6244 2.68923C84.6707 2.75888 84.717 2.82861 84.7631 2.89842C84.7801 2.92135 84.7893 2.94912 84.7893 2.97764C84.7893 3.00617 84.7801 3.03394 84.7631 3.05686C84.7373 3.09466 84.7094 3.13099 84.6794 3.16565C84.6672 3.1781 84.6509 3.18571 84.6336 3.18704C84.6162 3.18838 84.5989 3.18337 84.5849 3.17293C84.529 3.14031 84.473 3.10626 84.4171 3.07293C84.3531 3.03464 84.2883 2.99683 84.2242 2.95822C84.1527 2.91505 84.0815 2.87132 84.0103 2.82768C83.9331 2.78028 83.8555 2.73327 83.7789 2.68475C83.7553 2.67107 83.7337 2.65402 83.715 2.63415C83.7034 2.62396 83.6939 2.61152 83.6872 2.59758C83.6805 2.58364 83.6767 2.56848 83.6761 2.55303C83.6754 2.53759 83.6779 2.52216 83.6833 2.50769C83.6888 2.49322 83.6971 2.48001 83.7078 2.46884C83.7347 2.43067 83.7724 2.40137 83.8161 2.3847C83.8597 2.36803 83.9074 2.36474 83.9529 2.37524C84.0289 2.38443 84.1048 2.39402 84.1805 2.40617C84.19 2.40866 84.2001 2.40754 84.2089 2.40301C84.2177 2.39848 84.2245 2.39086 84.2279 2.38163C84.2679 2.31233 84.3092 2.24358 84.3503 2.17483C84.4532 2.0027 84.5562 1.8306 84.6593 1.65852C84.6601 1.65595 84.6605 1.65329 84.6606 1.65061Z" fill="url(#paint1_linear_9_541)"/>
<path d="M0.838449 11.3267H7.1545C7.33111 11.3267 7.50322 11.3824 7.64629 11.486C7.78936 11.5895 7.89611 11.7356 7.95131 11.9033L11.2067 21.795C11.2619 21.9627 11.3687 22.1088 11.5118 22.2123C11.6548 22.3158 11.8269 22.3716 12.0035 22.3716C12.1802 22.3716 12.3523 22.3158 12.4953 22.2123C12.6384 22.1088 12.7451 21.9627 12.8004 21.795L16.0557 11.9036C16.1109 11.7359 16.2177 11.5898 16.3607 11.4863C16.5038 11.3827 16.6759 11.327 16.8525 11.327H23.0459C23.1827 11.327 23.3175 11.3605 23.4385 11.4245C23.5594 11.4886 23.6629 11.5812 23.7398 11.6945C23.8167 11.8077 23.8647 11.938 23.8797 12.074C23.8947 12.2101 23.8762 12.3477 23.8257 12.475L15.6802 33.0267C15.6182 33.183 15.5108 33.3171 15.3717 33.4116C15.2327 33.506 15.0684 33.5565 14.9003 33.5565H8.98401C8.8159 33.5565 8.65166 33.506 8.51261 33.4116C8.37355 33.3171 8.26608 33.183 8.20415 33.0267L0.0589046 12.4743C0.00854609 12.3471 -0.00994064 12.2095 0.00505558 12.0736C0.0200518 11.9376 0.0680759 11.8073 0.144942 11.6942C0.221809 11.581 0.325185 11.4884 0.446062 11.4243C0.566939 11.3603 0.701648 11.3267 0.838449 11.3267Z" fill="black"/>
<path d="M25.345 11.4082H31.417C31.6394 11.4082 31.8528 11.4966 32.0101 11.6539C32.1674 11.8112 32.2558 12.0246 32.2558 12.2471C32.2557 12.4083 32.302 12.5662 32.3893 12.7017C32.4766 12.8373 32.6011 12.9448 32.748 13.0113C32.8948 13.0779 33.0577 13.1007 33.2172 13.0771C33.3767 13.0534 33.5259 12.9842 33.6471 12.8779C34.9394 11.7374 36.5749 10.9187 38.9451 10.9187C44.2068 10.9187 48.7342 15.2833 48.7342 22.3394V22.4209C48.7342 29.5992 44.2068 33.9638 38.9859 33.9638C36.5934 33.9638 34.9105 33.1916 33.6238 32.1399C33.5008 32.0397 33.352 31.9764 33.1945 31.9574C33.037 31.9385 32.8774 31.9645 32.7342 32.0326C32.591 32.1008 32.47 32.2081 32.3853 32.3422C32.3006 32.4763 32.2557 32.6317 32.2558 32.7903V39.1613C32.2558 39.3837 32.1674 39.5971 32.0101 39.7544C31.8528 39.9117 31.6394 40.0001 31.417 40.0001H25.345C25.1225 40.0001 24.9091 39.9117 24.7518 39.7544C24.5945 39.5971 24.5061 39.3837 24.5061 39.1613V12.2465C24.5063 12.0241 24.5947 11.8109 24.752 11.6537C24.9093 11.4965 25.1226 11.4082 25.345 11.4082ZM41.1069 22.4618V22.3802C41.1069 19.4843 39.1085 17.4041 36.5794 17.4041C34.0914 17.4041 32.0928 19.4843 32.0928 22.3802V22.4618C32.0928 25.3985 34.0912 27.4787 36.5794 27.4787C39.1082 27.4787 41.1069 25.4394 41.1069 22.4618Z" fill="black"/>
<path d="M50.3779 3.69922H56.4499C56.5601 3.69922 56.6692 3.72092 56.7709 3.76307C56.8727 3.80523 56.9652 3.86702 57.0431 3.94491C57.121 4.02281 57.1828 4.11528 57.2249 4.21706C57.2671 4.31883 57.2888 4.42791 57.2888 4.53808V32.6359C57.2888 32.746 57.2671 32.8551 57.2249 32.9569C57.1828 33.0587 57.121 33.1511 57.0431 33.229C56.9652 33.3069 56.8727 33.3687 56.7709 33.4109C56.6692 33.453 56.5601 33.4747 56.4499 33.4747H50.3779C50.1554 33.4747 49.9421 33.3864 49.7848 33.229C49.6274 33.0717 49.5391 32.8584 49.5391 32.6359V4.53808C49.5391 4.3156 49.6274 4.10223 49.7848 3.94491C49.9421 3.7876 50.1554 3.69922 50.3779 3.69922Z" fill="black"/>
<defs>
<linearGradient id="paint0_linear_9_541" x1="60.9663" y1="18.9713" x2="83.9446" y2="18.9713" gradientUnits="userSpaceOnUse">
<stop stop-color="#7DCFDA"/>
<stop offset="1" stop-color="#6984E0"/>
</linearGradient>
<linearGradient id="paint1_linear_9_541" x1="118.014" y1="104.717" x2="121.463" y2="104.717" gradientUnits="userSpaceOnUse">
<stop stop-color="#7DCFDA"/>
<stop offset="1" stop-color="#6984E0"/>
</linearGradient>
</defs>
</svg>
