<svg width="16" height="17" viewBox="0 0 16 17" fill="none" xmlns="http://www.w3.org/2000/svg">
<path d="M10.0009 6.75706H1.99756" stroke="currentColor" stroke-linecap="round" stroke-linejoin="round"/>
<path d="M4.66534 3.42236H3.33145C2.59447 3.42236 1.99756 4.01928 1.99756 4.75625V14.0935C1.99756 14.8304 2.59447 15.4274 3.33145 15.4274H8.667C9.40398 15.4274 10.0009 14.8304 10.0009 14.0935V4.75625C10.0009 4.01928 9.40398 3.42236 8.667 3.42236H7.33311" stroke="currentColor" stroke-linecap="round" stroke-linejoin="round"/>
<path d="M13.3354 12.426L14.6693 13.7599L13.3354 15.0938" stroke="currentColor" stroke-linecap="round" stroke-linejoin="round"/>
<path d="M12.002 13.76H14.6697" stroke="currentColor" stroke-linecap="round" stroke-linejoin="round"/>
<path d="M10.0009 9.4448H1.99756" stroke="currentColor" stroke-linecap="round" stroke-linejoin="round"/>
<path fill-rule="evenodd" clip-rule="evenodd" d="M4.66553 2.08838H7.3333V4.75616H4.66553V2.08838Z" stroke="currentColor" stroke-linecap="round" stroke-linejoin="round"/>
<path d="M3.99785 11.3141C3.93649 11.3141 3.88647 11.3642 3.88713 11.4255C3.88713 11.4869 3.93716 11.5369 3.99851 11.5369C4.05987 11.5369 4.10989 11.4869 4.10989 11.4255C4.10989 11.3642 4.05987 11.3141 3.99785 11.3141" stroke="currentColor" stroke-linecap="round" stroke-linejoin="round"/>
<path d="M5.99834 11.3141C5.93698 11.3141 5.88696 11.3642 5.88762 11.4255C5.88762 11.4869 5.93764 11.5369 5.999 11.5369C6.06036 11.5369 6.11038 11.4869 6.11038 11.4255C6.11038 11.3642 6.06036 11.3141 5.99834 11.3141" stroke="currentColor" stroke-linecap="round" stroke-linejoin="round"/>
<path d="M7.99931 13.3151C7.93795 13.3151 7.88793 13.3651 7.8886 13.4265C7.8886 13.4878 7.93862 13.5379 7.99998 13.5379C8.06134 13.5379 8.11136 13.4878 8.11136 13.4265C8.11136 13.3651 8.06134 13.3151 7.99931 13.3151" stroke="currentColor" stroke-linecap="round" stroke-linejoin="round"/>
<path d="M3.99785 13.3151C3.93649 13.3151 3.88647 13.3651 3.88713 13.4265C3.88713 13.4878 3.93716 13.5379 3.99851 13.5379C4.05987 13.5379 4.10989 13.4878 4.10989 13.4265C4.10989 13.3651 4.05987 13.3151 3.99785 13.3151" stroke="currentColor" stroke-linecap="round" stroke-linejoin="round"/>
<path d="M5.99834 13.3151C5.93698 13.3151 5.88696 13.3651 5.88762 13.4265C5.88762 13.4878 5.93764 13.5379 5.999 13.5379C6.06036 13.5379 6.11038 13.4878 6.11038 13.4265C6.11038 13.3651 6.06036 13.3151 5.99834 13.3151" stroke="currentColor" stroke-linecap="round" stroke-linejoin="round"/>
<path d="M10.001 5.4231H13.3357C13.7039 5.4231 14.0026 5.72189 14.0026 6.09004V9.42476C14.0026 9.79292 13.7039 10.0917 13.3357 10.0917H10.001" stroke="currentColor" stroke-linecap="round" stroke-linejoin="round"/>
<path d="M10.001 7.42405H14.0026" stroke="currentColor" stroke-linecap="round" stroke-linejoin="round"/>
<path d="M7.99931 11.3141C7.93795 11.3141 7.88793 11.3642 7.8886 11.4255C7.8886 11.4869 7.93862 11.5369 7.99998 11.5369C8.06134 11.5369 8.11136 11.4869 8.11136 11.4255C8.11136 11.3642 8.06134 11.3141 7.99931 11.3141" stroke="currentColor" stroke-linecap="round" stroke-linejoin="round"/>
</svg>
