<svg width="66" height="67" viewBox="0 0 16 17"  fill="none" xmlns="http://www.w3.org/2000/svg">
<path d="M13.2871 4.5C13.5632 4.5 13.7871 4.27614 13.7871 4C13.7871 3.72386 13.5632 3.5 13.2871 3.5V4.5ZM8.14209 3.5C7.86595 3.5 7.64209 3.72386 7.64209 4C7.64209 4.27614 7.86595 4.5 8.14209 4.5V3.5ZM13.2871 3.5H8.14209V4.5H13.2871V3.5Z" fill="#160042"/>
<path d="M13.2871 8.66479C13.5632 8.66479 13.7871 8.44094 13.7871 8.16479C13.7871 7.88865 13.5632 7.66479 13.2871 7.66479V8.66479ZM8.14209 7.66479C7.86595 7.66479 7.64209 7.88865 7.64209 8.16479C7.64209 8.44094 7.86595 8.66479 8.14209 8.66479V7.66479ZM13.2871 7.66479H8.14209V8.66479H13.2871V7.66479Z" fill="#160042"/>
<path d="M13.29 12.8298C13.5661 12.8298 13.79 12.606 13.79 12.3298C13.79 12.0537 13.5661 11.8298 13.29 11.8298V12.8298ZM3 11.8298C2.72386 11.8298 2.5 12.0537 2.5 12.3298C2.5 12.606 2.72386 12.8298 3 12.8298V11.8298ZM13.29 11.8298H3V12.8298H13.29V11.8298Z" fill="#160042"/>
<path d="M4.96098 4.24487L3.00098 6.20487L4.96098 8.16487" stroke="#160042" stroke-linecap="round" stroke-linejoin="round"/>
</svg>
