<svg width="34" height="34" viewBox="0 0 34 34" fill="none" xmlns="http://www.w3.org/2000/svg">
<path d="M10.566 11.4289C10.6614 11.5243 10.69 11.6679 10.6383 11.7926C10.5867 11.9173 10.465 11.9986 10.33 11.9986C10.1951 11.9986 10.0734 11.9173 10.0217 11.7926C9.97007 11.6679 9.99862 11.5243 10.0941 11.4289C10.2245 11.2989 10.4355 11.2989 10.566 11.4289" stroke="#CE0058" stroke-width="1.50957" stroke-linecap="round" stroke-linejoin="round"/>
<path d="M17.2359 11.4289C17.3314 11.5243 17.3599 11.6679 17.3083 11.7926C17.2566 11.9173 17.1349 11.9986 17 11.9986C16.865 11.9986 16.7433 11.9173 16.6916 11.7926C16.64 11.6679 16.6685 11.5243 16.764 11.4289C16.8944 11.2989 17.1055 11.2989 17.2359 11.4289" stroke="#CE0058" stroke-width="1.50957" stroke-linecap="round" stroke-linejoin="round"/>
<path d="M23.9058 11.4289C24.0013 11.5243 24.0298 11.6679 23.9782 11.7926C23.9265 11.9173 23.8048 11.9986 23.6699 11.9986C23.5349 11.9986 23.4132 11.9173 23.3616 11.7926C23.3099 11.6679 23.3385 11.5243 23.4339 11.4289C23.5644 11.2989 23.7754 11.2989 23.9058 11.4289" stroke="#CE0058" stroke-width="1.50957" stroke-linecap="round" stroke-linejoin="round"/>
<path d="M14.3323 18.334H7.66289C6.9553 18.3342 6.27662 18.0532 5.77628 17.5528C5.27593 17.0525 4.99512 16.3738 4.99512 15.6662V7.66289C4.99512 6.9553 5.27593 6.27662 5.77628 5.77628C6.27662 5.27593 6.9553 4.99492 7.66289 4.99512H26.3373C27.0449 4.99492 27.7236 5.27593 28.224 5.77628C28.7243 6.27662 29.0051 6.9553 29.0051 7.66289V11.6646" stroke="#CE0058" stroke-width="1.50957" stroke-linecap="round" stroke-linejoin="round"/>
<path fill-rule="evenodd" clip-rule="evenodd" d="M19.1919 23.2467L16.086 26.359C15.8177 26.6296 15.6668 26.995 15.666 27.3761V28.9001C15.666 29.6946 16.3101 30.3388 17.1047 30.3388H18.6351C19.0171 30.3393 19.3833 30.1869 19.6522 29.9155L22.7516 26.8096C23.3193 27.0084 23.9156 27.1133 24.517 27.1202C27.0148 27.1614 29.2511 25.5789 30.0432 23.2098C30.8354 20.8406 30.0007 18.2313 27.9806 16.7618C25.9604 15.2923 23.2209 15.3016 21.2108 16.7848C19.2007 18.268 18.3837 20.8829 19.1919 23.2466V23.2467Z" stroke="#CE0058" stroke-width="1.50957" stroke-linecap="round" stroke-linejoin="round"/>
<path d="M24.5166 21.3215C24.4245 21.3215 24.3498 21.3961 24.3498 21.4882C24.3498 21.5803 24.4245 21.655 24.5166 21.655C24.6086 21.655 24.6833 21.5803 24.6833 21.4882C24.6833 21.3961 24.6086 21.3215 24.5166 21.3215V21.3215" stroke="#CE0058" stroke-width="1.50957" stroke-linecap="round" stroke-linejoin="round"/>
</svg>
