<svg width="34" height="34" viewBox="0 0 34 34" fill="none" xmlns="http://www.w3.org/2000/svg">
<path d="M21.0018 12.998H4.99512" stroke="#CE0058" stroke-width="1.51" stroke-linecap="round" stroke-linejoin="round"/>
<path d="M10.3307 6.3291H7.66289C6.18895 6.3291 4.99512 7.52293 4.99512 8.99688V27.6713C4.99512 29.1453 6.18895 30.3391 7.66289 30.3391H18.334C19.808 30.3391 21.0018 29.1453 21.0018 27.6713V8.99688C21.0018 7.52293 19.808 6.3291 18.334 6.3291H15.6662" stroke="#CE0058" stroke-width="1.51" stroke-linecap="round" stroke-linejoin="round"/>
<path d="M27.6709 24.3359L30.3387 27.0037L27.6709 29.6715" stroke="#CE0058" stroke-width="1.51" stroke-linecap="round" stroke-linejoin="round"/>
<path d="M25.0039 27.0039H30.3395" stroke="#CE0058" stroke-width="1.51" stroke-linecap="round" stroke-linejoin="round"/>
<path d="M21.0018 18.374H4.99512" stroke="#CE0058" stroke-width="1.51" stroke-linecap="round" stroke-linejoin="round"/>
<path fill-rule="evenodd" clip-rule="evenodd" d="M10.3311 3.66113H15.6666V8.99669H10.3311V3.66113Z" stroke="#CE0058" stroke-width="1.51" stroke-linecap="round" stroke-linejoin="round"/>
<path d="M8.9957 22.1131C8.87298 22.1131 8.77294 22.2132 8.77427 22.3359C8.77427 22.4586 8.87431 22.5586 8.99702 22.5586C9.11975 22.5586 9.21979 22.4586 9.21979 22.3359C9.21979 22.2132 9.11975 22.1131 8.9957 22.1131" stroke="#CE0058" stroke-width="1.51" stroke-linecap="round" stroke-linejoin="round"/>
<path d="M12.9967 22.1131C12.874 22.1131 12.7739 22.2132 12.7752 22.3359C12.7752 22.4586 12.8753 22.5586 12.998 22.5586C13.1207 22.5586 13.2208 22.4586 13.2208 22.3359C13.2208 22.2132 13.1207 22.1131 12.9967 22.1131" stroke="#CE0058" stroke-width="1.51" stroke-linecap="round" stroke-linejoin="round"/>
<path d="M16.9986 26.1141C16.8759 26.1141 16.7759 26.2141 16.7772 26.3369C16.7772 26.4596 16.8772 26.5596 17 26.5596C17.1227 26.5596 17.2227 26.4596 17.2227 26.3369C17.2227 26.2141 17.1227 26.1141 16.9986 26.1141" stroke="#CE0058" stroke-width="1.51" stroke-linecap="round" stroke-linejoin="round"/>
<path d="M8.9957 26.1141C8.87298 26.1141 8.77294 26.2141 8.77427 26.3369C8.77427 26.4596 8.87431 26.5596 8.99702 26.5596C9.11975 26.5596 9.21979 26.4596 9.21979 26.3369C9.21979 26.2141 9.11975 26.1141 8.9957 26.1141" stroke="#CE0058" stroke-width="1.51" stroke-linecap="round" stroke-linejoin="round"/>
<path d="M12.9967 26.1141C12.874 26.1141 12.7739 26.2141 12.7752 26.3369C12.7752 26.4596 12.8753 26.5596 12.998 26.5596C13.1207 26.5596 13.2208 26.4596 13.2208 26.3369C13.2208 26.2141 13.1207 26.1141 12.9967 26.1141" stroke="#CE0058" stroke-width="1.51" stroke-linecap="round" stroke-linejoin="round"/>
<path d="M21.002 10.3311H27.6714C28.4077 10.3311 29.0053 10.9286 29.0053 11.6649V18.3344C29.0053 19.0707 28.4077 19.6683 27.6714 19.6683H21.002" stroke="#CE0058" stroke-width="1.51" stroke-linecap="round" stroke-linejoin="round"/>
<path d="M21.002 14.332H29.0053" stroke="#CE0058" stroke-width="1.51" stroke-linecap="round" stroke-linejoin="round"/>
<path d="M16.9986 22.1131C16.8759 22.1131 16.7759 22.2132 16.7772 22.3359C16.7772 22.4586 16.8772 22.5586 17 22.5586C17.1227 22.5586 17.2227 22.4586 17.2227 22.3359C17.2227 22.2132 17.1227 22.1131 16.9986 22.1131" stroke="#CE0058" stroke-width="1.51" stroke-linecap="round" stroke-linejoin="round"/>
</svg>
