<svg width="24" height="24" viewBox="0 0 24 24" fill="none" xmlns="http://www.w3.org/2000/svg">
<path d="M9.9993 13.0005L6.42528 19.255C6.33681 19.4098 6.33745 19.6 6.42695 19.7543C6.51645 19.9085 6.68127 20.0034 6.85958 20.0034H8.54492C8.83341 20.0034 9.10785 19.8789 9.29782 19.6618L15.1264 13.0005" stroke="currentColor" stroke-width="1.5" stroke-linecap="round" stroke-linejoin="round"/>
<path d="M8.85553 15.0014H6.66415C5.58185 15.0014 4.52874 14.6503 3.6629 14.001L0.995117 12.0001L1.99553 10.9997L0.995117 6.99805H3.99637L5.9972 9.9993H20.003C21.6606 9.9993 23.0043 11.343 23.0043 13.0005V13.0005C23.0043 14.1056 22.1085 15.0014 21.0035 15.0014H13.3753" stroke="currentColor" stroke-width="1.5" stroke-linecap="round" stroke-linejoin="round"/>
<path d="M15.126 9.99908L10.1728 4.33827C9.98284 4.12113 9.70837 3.99658 9.41986 3.99658H7.73453C7.55623 3.99658 7.39143 4.09152 7.30194 4.24574C7.21245 4.39995 7.21182 4.59014 7.30027 4.74494L10.3026 9.99908" stroke="currentColor" stroke-width="1.5" stroke-linecap="round" stroke-linejoin="round"/>
</svg>
