<svg width="16" height="17" viewBox="0 0 16 17" fill="none" xmlns="http://www.w3.org/2000/svg">
<g style="mix-blend-mode:darken">
<path d="M8.00033 8.72V6.5" stroke="#3B3B40" stroke-linecap="round" stroke-linejoin="round"/>
<path d="M7.99966 10.389C7.93833 10.389 7.88833 10.439 7.889 10.5003C7.889 10.5617 7.939 10.6117 8.00033 10.6117C8.06166 10.6117 8.11166 10.5617 8.11166 10.5003C8.11166 10.439 8.06166 10.389 7.99966 10.389" stroke="#3B3B40" stroke-linecap="round" stroke-linejoin="round"/>
<path d="M11.7687 12.2686C10.8033 13.2333 9.47201 13.8326 7.99935 13.8326C5.05402 13.8326 2.66602 11.4446 2.66602 8.49929C2.66602 8.09396 2.71535 7.70062 2.80068 7.32129" stroke="#3B3B40" stroke-linecap="round" stroke-linejoin="round"/>
<path d="M1.33398 8.49935L2.66732 7.16602L4.00065 8.49935" stroke="#3B3B40" stroke-linecap="round" stroke-linejoin="round"/>
<path d="M14.6667 8.5L13.3333 9.83333L12 8.5" stroke="#3B3B40" stroke-linecap="round" stroke-linejoin="round"/>
<path d="M4.22852 4.72802C5.19385 3.76335 6.52718 3.16602 7.99985 3.16602C10.9452 3.16602 13.3332 5.55402 13.3332 8.49935C13.3332 8.90468 13.2838 9.29802 13.1985 9.67735" stroke="#3B3B40" stroke-linecap="round" stroke-linejoin="round"/>
</g>
</svg>
