<svg width="24" height="24" viewBox="0 0 24 24" fill="none" xmlns="http://www.w3.org/2000/svg">
<path opacity="0.4" d="M16.5 6.75H15.242L14.241 11.75H9.196L8.5 8.25H14.942" stroke="currentColor" stroke-width="1.5" stroke-linecap="round" stroke-linejoin="round"/>
<path fill-rule="evenodd" clip-rule="evenodd" d="M12.5002 18H17.9932C19.65 18 20.9932 16.6569 20.9932 15V6C20.9932 4.34315 19.65 3 17.9932 3H5.99316C4.33631 3 2.99316 4.34315 2.99316 6V15C2.99316 16.6569 4.33631 18 5.99316 18H8.00016V20.4429C8.00017 20.6567 8.1227 20.8515 8.31537 20.9441C8.50804 21.0367 8.73673 21.0107 8.90365 20.8771L12.5002 18Z" stroke="currentColor" stroke-width="1.5" stroke-linecap="round" stroke-linejoin="round"/>
<path opacity="0.4" d="M9.67153 14.165C9.65211 14.1846 9.65221 14.2162 9.67175 14.2356C9.69129 14.2551 9.72289 14.255 9.74239 14.2356C9.76188 14.2161 9.76192 14.1845 9.74246 14.1649C9.723 14.1454 9.6914 14.1453 9.67182 14.1647L9.67153 14.165" stroke="currentColor" stroke-width="1.5" stroke-linecap="round" stroke-linejoin="round"/>
<path opacity="0.4" d="M13.6999 14.165C13.6804 14.1846 13.6805 14.2162 13.7001 14.2356C13.7196 14.2551 13.7512 14.255 13.7707 14.2356C13.7902 14.2161 13.7902 14.1845 13.7708 14.1649C13.7513 14.1454 13.7197 14.1453 13.7001 14.1647L13.6999 14.165" stroke="currentColor" stroke-width="1.5" stroke-linecap="round" stroke-linejoin="round"/>
</svg>
