<svg width="24" height="24" viewBox="0 0 24 24" fill="none" xmlns="http://www.w3.org/2000/svg">
<path d="M20.0032 10.9999V7.55884C20.0032 7.0575 19.804 6.57669 19.4495 6.22219L16.7778 3.55042C16.4231 3.1958 15.9422 2.99658 15.4407 2.99658H4.99693C3.8919 2.99658 2.99609 3.89239 2.99609 4.99742V18.0028C2.99609 19.1079 3.8919 20.0037 4.99693 20.0037H10.9994" stroke="#979C9E" stroke-width="1.5" stroke-linecap="round" stroke-linejoin="round"/>
<path d="M14.9932 2.99658V7.1233C14.993 7.60668 14.6012 7.99849 14.1178 7.99867H8.8656C8.38222 7.99849 7.99041 7.60668 7.99023 7.1233V2.99658" stroke="#979C9E" stroke-width="1.5" stroke-linecap="round" stroke-linejoin="round"/>
<path d="M6.99618 20.003V14.3267C6.9884 13.6335 7.51998 13.0533 8.21121 13.0005H11.9983" stroke="#979C9E" stroke-width="1.5" stroke-linecap="round" stroke-linejoin="round"/>
<circle cx="17.5019" cy="17.5024" r="4.50187" stroke="#979C9E" stroke-width="1.5" stroke-linecap="round" stroke-linejoin="round"/>
<path d="M18.9009 16.8037L17.1497 18.5549L16.0996 17.5038" stroke="#979C9E" stroke-width="1.5" stroke-linecap="round" stroke-linejoin="round"/>
</svg>
