<svg width="26" height="26" viewBox="0 0 26 26" fill="none" xmlns="http://www.w3.org/2000/svg">
<path d="M21.0032 11.9999V8.55884C21.0032 8.0575 20.804 7.57669 20.4495 7.22219L17.7778 4.55042C17.4231 4.1958 16.9422 3.99658 16.4407 3.99658H5.99693C4.8919 3.99658 3.99609 4.89239 3.99609 5.99742V19.0028C3.99609 20.1079 4.8919 21.0037 5.99693 21.0037H11.9994" stroke="#CE0058" stroke-width="1.5" stroke-linecap="round" stroke-linejoin="round"/>
<path d="M21.0032 11.9999V8.55884C21.0032 8.0575 20.804 7.57669 20.4495 7.22219L17.7778 4.55042C17.4231 4.1958 16.9422 3.99658 16.4407 3.99658H5.99693C4.8919 3.99658 3.99609 4.89239 3.99609 5.99742V19.0028C3.99609 20.1079 4.8919 21.0037 5.99693 21.0037H11.9994" stroke="white" stroke-opacity="0.4" stroke-width="1.5" stroke-linecap="round" stroke-linejoin="round"/>
<path d="M15.9932 3.99658V8.1233C15.993 8.60668 15.6012 8.99849 15.1178 8.99867H9.8656C9.38222 8.99849 8.99041 8.60668 8.99023 8.1233V3.99658" stroke="#CE0058" stroke-width="1.5" stroke-linecap="round" stroke-linejoin="round"/>
<path d="M15.9932 3.99658V8.1233C15.993 8.60668 15.6012 8.99849 15.1178 8.99867H9.8656C9.38222 8.99849 8.99041 8.60668 8.99023 8.1233V3.99658" stroke="white" stroke-opacity="0.4" stroke-width="1.5" stroke-linecap="round" stroke-linejoin="round"/>
<path d="M7.99618 21.003V15.3267C7.9884 14.6335 8.51998 14.0533 9.21121 14.0005H12.9983" stroke="#CE0058" stroke-width="1.5" stroke-linecap="round" stroke-linejoin="round"/>
<path d="M7.99618 21.003V15.3267C7.9884 14.6335 8.51998 14.0533 9.21121 14.0005H12.9983" stroke="white" stroke-opacity="0.4" stroke-width="1.5" stroke-linecap="round" stroke-linejoin="round"/>
<circle cx="18.5019" cy="18.5024" r="4.50187" stroke="#CE0058" stroke-width="1.5" stroke-linecap="round" stroke-linejoin="round"/>
<circle cx="18.5019" cy="18.5024" r="4.50187" stroke="white" stroke-opacity="0.4" stroke-width="1.5" stroke-linecap="round" stroke-linejoin="round"/>
<path d="M19.9009 17.8037L18.1497 19.5549L17.0996 18.5038" stroke="#CE0058" stroke-width="1.5" stroke-linecap="round" stroke-linejoin="round"/>
<path d="M19.9009 17.8037L18.1497 19.5549L17.0996 18.5038" stroke="white" stroke-opacity="0.4" stroke-width="1.5" stroke-linecap="round" stroke-linejoin="round"/>
</svg>
