<svg width="25" height="24" viewBox="0 0 25 24" fill="none" xmlns="http://www.w3.org/2000/svg">
<path d="M4.31836 15.7495H5.83536C6.18936 15.7495 6.52836 15.6095 6.77836 15.3595V15.3595C7.02836 15.1095 7.16836 14.7705 7.16836 14.4165V9.08251C7.16836 8.72851 7.02836 8.38951 6.77836 8.13951V8.13951C6.52836 7.88951 6.18936 7.74951 5.83536 7.74951H4.56636" stroke="currentColor" stroke-width="1.25" stroke-linecap="round" stroke-linejoin="round"/>
<path d="M20.4369 7.74951H19.1689C18.8149 7.74951 18.4759 7.88951 18.2259 8.13951V8.13951C17.9759 8.38951 17.8359 8.72851 17.8359 9.08251V14.4165C17.8359 14.7705 17.9759 15.1095 18.2259 15.3595V15.3595C18.4759 15.6095 18.8149 15.7495 19.1689 15.7495H20.6859" stroke="currentColor" stroke-width="1.25" stroke-linecap="round" stroke-linejoin="round"/>
<path d="M17.853 14.6465H16.993C16.707 14.6465 16.424 14.7075 16.164 14.8265L11.957 16.7425" stroke="currentColor" stroke-width="1.25" stroke-linecap="round" stroke-linejoin="round"/>
<path d="M11.146 8.66791C10.642 8.37491 10.033 8.30191 9.47097 8.50391L7.16797 9.33291" stroke="currentColor" stroke-width="1.25" stroke-linecap="round" stroke-linejoin="round"/>
<path d="M17.994 8.43578L15.118 7.16978C14.502 6.89878 13.79 6.95578 13.225 7.32178L10.615 9.01278C9.78495 9.54978 9.68995 10.7278 10.422 11.3918V11.3918C10.871 11.7988 11.521 11.8968 12.07 11.6408L13.626 10.9148" stroke="currentColor" stroke-width="1.25" stroke-linecap="round" stroke-linejoin="round"/>
<path fill-rule="evenodd" clip-rule="evenodd" d="M12.5 20.9995C17.4706 20.9995 21.5 16.9701 21.5 11.9995C21.5 7.02895 17.4706 2.99951 12.5 2.99951C7.52944 2.99951 3.5 7.02895 3.5 11.9995C3.5 16.9701 7.52944 20.9995 12.5 20.9995Z" stroke="currentColor" stroke-width="1.25" stroke-linecap="round" stroke-linejoin="round"/>
<path d="M13.6275 10.9136L14.4175 11.6306C15.2905 12.4216 15.2935 13.7916 14.4255 14.5876L12.4085 16.4336C11.6475 17.1316 10.4795 17.1336 9.71553 16.4406L8.32953 15.1836C8.00153 14.8866 7.58353 14.7196 7.14453 14.6836" stroke="currentColor" stroke-width="1.25" stroke-linecap="round" stroke-linejoin="round"/>
</svg>
