<svg width="25" height="24" viewBox="0 0 25 24" fill="none" xmlns="http://www.w3.org/2000/svg">
<rect x="9.5" y="11.4995" width="6" height="4" rx="1.25797" stroke="currentColor" stroke-width="1.25" stroke-linecap="round" stroke-linejoin="round"/>
<path d="M14.25 11.4995V10.2495C14.25 9.28301 13.4665 8.49951 12.5 8.49951V8.49951C11.5335 8.49951 10.75 9.28301 10.75 10.2495V11.4995" stroke="currentColor" stroke-width="1.25" stroke-linecap="round" stroke-linejoin="round"/>
<path fill-rule="evenodd" clip-rule="evenodd" d="M20.5 13.0204C20.5 16.7951 15.8552 19.5992 13.6401 20.725C12.9255 21.0904 12.079 21.0911 11.3636 20.727C9.15012 19.6022 4.5 16.7913 4.5 13.0204V7.56889C4.50735 7.05804 4.89423 6.63275 5.4021 6.57721C7.52402 6.41597 9.55835 5.66363 11.2746 4.40545C12.0019 3.8642 12.9981 3.8642 13.7254 4.40545C15.4416 5.66363 17.4759 6.41597 19.5979 6.57721C20.1057 6.63273 20.4926 7.05803 20.5 7.56889V13.0204Z" stroke="currentColor" stroke-width="1.25" stroke-linecap="round" stroke-linejoin="round"/>
</svg>
