<svg width="24" height="24" viewBox="0 0 24 24" fill="none" xmlns="http://www.w3.org/2000/svg">
<path fill-rule="evenodd" clip-rule="evenodd" d="M11.9995 5.22852V5.22852C15.7395 5.22852 18.7705 8.25952 18.7705 11.9995V11.9995C18.7705 15.7395 15.7395 18.7705 11.9995 18.7705V18.7705C8.25952 18.7705 5.22852 15.7395 5.22852 11.9995V11.9995C5.22852 8.25952 8.25952 5.22852 11.9995 5.22852Z" stroke="#B10017" stroke-width="1.5" stroke-linecap="round" stroke-linejoin="round"/>
<path d="M12 12.3753V8.61426" stroke="#B10017" stroke-width="1.5" stroke-linecap="round" stroke-linejoin="round"/>
<path d="M11.999 15.0463C11.916 15.0463 11.849 15.1133 11.85 15.1963C11.85 15.2793 11.917 15.3463 12 15.3463C12.083 15.3463 12.15 15.2793 12.15 15.1963C12.15 15.1143 12.083 15.0463 11.999 15.0463" stroke="#B10017" stroke-width="1.5" stroke-linecap="round" stroke-linejoin="round"/>
<path d="M20.3262 5.75684C23.1042 9.44884 23.1042 14.5498 20.3262 18.2418" stroke="#B10017" stroke-width="1.5" stroke-linecap="round" stroke-linejoin="round"/>
<path d="M3.66748 18.2428C0.889484 14.5508 0.889484 9.44981 3.66748 5.75781" stroke="#B10017" stroke-width="1.5" stroke-linecap="round" stroke-linejoin="round"/>
</svg>
