<svg width="88" height="88" viewBox="0 0 88 88" fill="none" xmlns="http://www.w3.org/2000/svg">
<g filter="url(#filter0_d_980_24095)">
<circle cx="44" cy="36" r="20" fill="#CE0058"/>
<path fill-rule="evenodd" clip-rule="evenodd" d="M50.2041 29.7621C48.5581 28.1151 46.3691 27.2071 44.0371 27.2061C39.2301 27.2061 35.3191 31.1151 35.3181 35.9201C35.3161 37.4491 35.7171 38.9521 36.4811 40.2771L35.2441 44.7931L39.8661 43.5811C41.1451 44.2771 42.5771 44.6421 44.0331 44.6421H44.0371C48.8421 44.6421 52.7531 40.7321 52.7551 35.9271C52.7561 33.5991 51.8501 31.4101 50.2041 29.7621Z" stroke="white" stroke-width="1.25" stroke-linecap="round" stroke-linejoin="round"/>
<path d="M45.0947 37.5599L45.5007 37.1569C45.8737 36.7869 46.4637 36.7399 46.8937 37.0419C47.3097 37.3339 47.6857 37.5959 48.0357 37.8399C48.5917 38.2259 48.6587 39.0179 48.1797 39.4959L47.8207 39.8549" stroke="white" stroke-width="1.25" stroke-linecap="round" stroke-linejoin="round"/>
<path d="M40.1455 32.1789L40.5045 31.8199C40.9825 31.3419 41.7745 31.4089 42.1605 31.9639C42.4035 32.3139 42.6655 32.6899 42.9585 33.1059C43.2605 33.5359 43.2145 34.1259 42.8435 34.4989L42.4405 34.9049" stroke="white" stroke-width="1.25" stroke-linecap="round" stroke-linejoin="round"/>
<path d="M47.8207 39.8548C46.3397 41.3288 43.8507 40.0768 41.8857 38.1108" stroke="white" stroke-width="1.25" stroke-linecap="round" stroke-linejoin="round"/>
<path d="M41.8881 38.114C39.9231 36.148 38.6711 33.66 40.1451 32.179" stroke="white" stroke-width="1.25" stroke-linecap="round" stroke-linejoin="round"/>
<path d="M42.4404 34.9048C42.7594 35.4078 43.1684 35.9058 43.6304 36.3678L43.6324 36.3698C44.0944 36.8318 44.5924 37.2408 45.0954 37.5598" stroke="white" stroke-width="1.25" stroke-linecap="round" stroke-linejoin="round"/>
</g>
<defs>
<filter id="filter0_d_980_24095" x="0" y="0" width="88" height="88" filterUnits="userSpaceOnUse" color-interpolation-filters="sRGB">
<feFlood flood-opacity="0" result="BackgroundImageFix"/>
<feColorMatrix in="SourceAlpha" type="matrix" values="0 0 0 0 0 0 0 0 0 0 0 0 0 0 0 0 0 0 127 0" result="hardAlpha"/>
<feOffset dy="8"/>
<feGaussianBlur stdDeviation="12"/>
<feColorMatrix type="matrix" values="0 0 0 0 0 0 0 0 0 0 0 0 0 0 0 0 0 0 0.16 0"/>
<feBlend mode="normal" in2="BackgroundImageFix" result="effect1_dropShadow_980_24095"/>
<feBlend mode="normal" in="SourceGraphic" in2="effect1_dropShadow_980_24095" result="shape"/>
</filter>
</defs>
</svg>
