<svg width="25" height="24" viewBox="0 0 25 24" fill="none" xmlns="http://www.w3.org/2000/svg">
<path fill-rule="evenodd" clip-rule="evenodd" d="M18.7041 5.76157C17.0581 4.11457 14.8691 3.20657 12.5371 3.20557C7.73014 3.20557 3.81914 7.11457 3.81814 11.9196C3.81614 13.4486 4.21714 14.9516 4.98114 16.2766L3.74414 20.7926L8.36614 19.5806C9.64514 20.2766 11.0771 20.6416 12.5331 20.6416H12.5371C17.3421 20.6416 21.2531 16.7316 21.2551 11.9266C21.2561 9.59857 20.3501 7.40957 18.7041 5.76157Z" stroke="#3B3B40" stroke-width="1.25" stroke-linecap="round" stroke-linejoin="round"/>
<path d="M13.5957 13.5594L14.0017 13.1564C14.3747 12.7864 14.9647 12.7394 15.3947 13.0414C15.8107 13.3334 16.1867 13.5954 16.5367 13.8394C17.0927 14.2254 17.1597 15.0174 16.6807 15.4954L16.3217 15.8544" stroke="#3B3B40" stroke-width="1.25" stroke-linecap="round" stroke-linejoin="round"/>
<path d="M8.64453 8.17841L9.00353 7.81941C9.48153 7.34141 10.2735 7.40841 10.6595 7.96341C10.9025 8.31341 11.1645 8.68941 11.4575 9.10541C11.7595 9.53541 11.7135 10.1254 11.3425 10.4984L10.9395 10.9044" stroke="#3B3B40" stroke-width="1.25" stroke-linecap="round" stroke-linejoin="round"/>
<path d="M16.3217 15.8544C14.8407 17.3284 12.3517 16.0764 10.3867 14.1104" stroke="#3B3B40" stroke-width="1.25" stroke-linecap="round" stroke-linejoin="round"/>
<path d="M10.3881 14.1132C8.42307 12.1472 7.17107 9.65922 8.64507 8.17822" stroke="#3B3B40" stroke-width="1.25" stroke-linecap="round" stroke-linejoin="round"/>
<path d="M10.9395 10.9043C11.2585 11.4073 11.6675 11.9053 12.1295 12.3673L12.1315 12.3693C12.5935 12.8313 13.0915 13.2403 13.5945 13.5593" stroke="#3B3B40" stroke-width="1.25" stroke-linecap="round" stroke-linejoin="round"/>
</svg>
