<?xml version="1.0" encoding="utf-8"?>
<!-- Generator: Adobe Illustrator 27.1.1, SVG Export Plug-In . SVG Version: 6.00 Build 0)  -->
<svg version="1.1" id="Layer_1" xmlns="http://www.w3.org/2000/svg" xmlns:xlink="http://www.w3.org/1999/xlink" x="0px" y="0px"
	 viewBox="0 0 1920 1080" style="enable-background:new 0 0 1920 1080;" xml:space="preserve">
<style type="text/css">
	.st0{fill:#750030;}
	.st1{fill:#810036;}
	.st2{fill:#8E003B;}
	.st3{fill:#9A0041;}
	.st4{fill:#A80047;}
	.st5{fill:#B4004E;}
	.st6{fill:#C00053;}
	.st7{fill:#CC0058;}
</style>
<g>
	<rect x="0.1" y="0.2" class="st0" width="1920" height="1080"/>
	<polygon class="st0" points="0.1,937.3 143,1080.2 1777.2,1080.2 1920.1,937.3 1920.1,0.2 0.1,0.2 	"/>
	<polygon class="st1" points="0.1,735.2 345.1,1080.2 1575.1,1080.2 1920.1,735.2 1920.1,0.2 0.1,0.2 	"/>
	<polygon class="st2" points="0.1,533.1 547.2,1080.2 1373,1080.2 1920.1,533.1 1920.1,0.2 0.1,0.2 	"/>
	<polygon class="st3" points="0.1,331 749.2,1080.2 1170.9,1080.2 1920.1,331 1920.1,0.2 0.1,0.2 	"/>
	<polygon class="st4" points="0.1,142 938.3,1080.2 955.8,1080.2 1920.1,115.9 1920.1,0.2 0.1,0.2 	"/>
	<polygon class="st5" points="960.1,886.9 1846.8,0.2 73.4,0.2 	"/>
	<polygon class="st6" points="960.1,684.8 1644.7,0.2 275.5,0.2 	"/>
	<polygon class="st7" points="960.1,482.7 1442.6,0.2 477.6,0.2 	"/>
</g>
</svg>
