<svg width="1066" height="133" viewBox="0 0 1066 133" fill="none" xmlns="http://www.w3.org/2000/svg">
<path d="M495.866 75.8531C495.866 80.3908 501.196 82.6576 506.622 82.6576C511.658 82.6576 516.988 80.3866 516.988 76.4187C516.988 70.087 509.43 69.8 504.489 69.5172C492.088 68.7616 479.684 63.941 479.684 50.1421C479.684 35.7733 492.184 28.4961 506.038 28.4961C519.117 28.4961 532.391 35.7776 532.101 50.1421H515.535C515.439 45.6044 511.078 43.7133 506.332 43.7133C502.36 43.7133 497.125 44.7517 497.125 49.7622C497.125 54.2029 501.001 55.2455 507.491 55.904C521.929 57.1323 534.524 60.4417 534.524 76.5116C534.524 90.4076 520.666 97.6848 506.812 97.6848C492.469 97.6848 478.715 90.6904 479.005 75.8489H495.866V75.8531Z" fill="black"/>
<path d="M584.027 96.1784V69.7119H563.004V96.1784H545.273V30.0078H563.004V53.9206H584.027V30.0078H601.758V96.1784H584.027V96.1784Z" fill="black"/>
<path d="M647.402 97.4067C629.476 97.4067 612.715 86.0645 612.715 63.093C612.715 40.2187 630.056 28.6865 647.692 28.6865C665.037 28.6865 682.283 40.2187 682.283 63.093C682.283 83.3208 667.94 97.4067 647.402 97.4067V97.4067ZM647.501 81.054C655.93 81.054 664.553 74.908 664.553 63.093C664.553 51.2781 656.124 45.1321 647.692 45.1321C638.874 45.1321 630.446 50.9953 630.446 63.093C630.446 74.908 638.779 81.054 647.501 81.054V81.054Z" fill="black"/>
<path d="M693.338 96.0839V29.9133C703.415 29.9133 713.202 29.8162 723.278 29.9133C739.555 29.9133 747.889 42.2981 747.599 54.7716C747.599 66.8694 739.365 78.9714 723.278 78.9714H711.073V96.0839H693.338V96.0839ZM723.278 63.9441C727.93 63.9441 730.642 59.1236 730.642 54.303C730.642 49.5753 728.124 44.9448 723.278 44.9448H710.779V63.9441H723.278Z" fill="black"/>
<path d="M1007.82 83.0949L1021.13 96.0833H1047.48V93.5338L1021.7 68.418L1007.82 83.0949V83.0949Z" fill="#D50057"/>
<path d="M980.671 69.2451L955.74 93.5336V96.0874H982.081L995.13 83.3522L980.671 69.2451V69.2451Z" fill="#D50057"/>
<path d="M802.854 61.4884C808.375 64.2279 811.282 69.6183 811.282 75.6672C811.282 87.0094 803.724 95.8021 789.774 95.8021H757.121V29.7285H787.062C799.657 29.7285 808.474 37.7656 808.474 50.0533C808.474 54.1141 806.246 58.8417 802.854 61.4884ZM774.852 44.76V55.8194H785.803C789.195 55.8194 790.938 53.2656 791.034 50.6232C791.129 47.6937 789.385 44.7642 785.803 44.7642H774.852V44.76ZM774.852 69.8083V80.7748H788.515C791.908 80.7748 793.456 78.3181 793.746 75.6714C793.842 73.6875 792.972 71.6065 791.323 70.471C790.449 70.0953 789.58 69.8083 788.416 69.8083H774.852Z" fill="#D50057"/>
<path d="M836.265 87.9498L832.388 96.1768H813.883V93.8129L844.983 29.3477H853.121L883.932 93.8129V96.1768H865.617L861.645 87.9498H836.265ZM841.98 73.4881H856.029L848.955 57.5111L841.98 73.4881Z" fill="#D50057"/>
<path d="M907.881 62.0582V96.1819H890.15V29.7285H895.676L931.042 62.3411V30.0113H948.772V96.3677H943.541L907.881 62.0582V62.0582Z" fill="#D50057"/>
<path d="M982.116 29.7929H955.74V32.3045L1001.6 77.0444L1065 10L1001.6 48.7965L982.116 29.7929V29.7929Z" fill="#D50057"/>
<mask id="mask0_5465_27745" style="mask-type:luminance" maskUnits="userSpaceOnUse" x="0" y="0" width="416" height="133">
<path d="M415.195 0H0V132.068H415.195V0Z" fill="white"/>
</mask>
<g mask="url(#mask0_5465_27745)">
<path d="M414.734 85.447C416.849 76.691 411.466 67.8768 402.71 65.7602C393.953 63.6436 385.139 69.0257 383.021 77.7818C380.904 86.5378 386.287 95.3519 395.043 97.4686C403.802 99.5852 412.616 94.203 414.734 85.447Z" fill="#086FB0"/>
<path d="M399.755 92.642H396.919C396.367 92.642 395.956 92.1179 396.087 91.5844L400.972 71.4088C401.065 71.0252 401.412 70.7539 401.804 70.7539H404.64C405.192 70.7539 405.605 71.2778 405.472 71.8113L400.588 91.9869C400.494 92.3705 400.148 92.642 399.755 92.642Z" fill="white"/>
<path d="M394.877 91.8651C394.877 91.8651 396.328 86.3626 396.441 85.8854L394.624 83.2745C394.437 83.0033 394.325 82.7598 394.008 82.7598H389.974C389.534 82.7598 389.216 83.1716 389.318 83.5928" fill="white"/>
<path d="M25.326 80.8418H3.80031C0.786708 80.8418 -1.12253 82.8258 0.730553 85.8109L28.8639 128.118L36.2012 97.3399L25.326 80.8418Z" fill="#086FB0"/>
<path d="M138.89 21.7207L126.667 75.697C121.819 79.777 116.578 81.789 110.944 81.789C108.033 81.789 106.246 81.2462 105.59 80.1795C104.935 79.1128 104.655 77.9149 104.748 76.6047C104.842 75.2947 105.029 74.0595 105.31 72.7962L117.037 21.73H93.1523L81.4629 72.216C80.6674 75.3227 80.1432 78.6261 79.8905 82.1635C79.6379 85.7101 80.0871 89.0227 81.2289 92.1295C82.221 94.6563 84.0927 96.64 86.8536 98.0905C89.6146 99.5411 93.4985 100.271 98.4962 100.271C103.494 100.271 107.771 99.541 111.318 98.0812C114.865 96.6213 118.796 94.2444 123.092 91.0347L125.45 98.8392H145.114L162.755 21.7207H138.89Z" fill="#086FB0"/>
<path d="M359.997 22.1973C353.587 20.8404 347.446 20.1572 341.569 20.1572C335.692 20.1572 330.637 20.6438 326.398 21.6171C323.834 22.1037 321.625 22.8335 319.763 23.7974C317.901 24.7708 315.86 26.1088 313.659 27.8026C311.451 29.5057 309.487 31.5364 307.774 33.9226C306.051 36.2995 304.367 39.2659 302.711 42.8034C301.054 46.35 299.51 50.7389 298.077 55.9793C296.636 61.2196 295.719 66.7595 295.316 72.5801C294.913 78.4008 295.711 83.5945 297.722 88.1611C301.26 95.928 306.958 99.8117 314.82 99.8117C319.285 99.8117 323.693 99.007 328.027 97.4066C332.36 95.8064 335.542 93.7853 337.573 91.1649L340.689 98.8291H359.333L374.382 29.2718C371.21 25.9684 366.427 23.5542 360.016 22.1879H359.997V22.1973ZM340.876 72.7393C337.62 77.6897 332.781 80.1693 326.371 80.1693C321.419 80.1693 319.173 76.9223 319.622 70.4091C319.827 67.4053 320.521 63.082 321.689 57.4485C322.711 52.5917 324.039 48.8579 325.677 46.2377C326.454 44.8808 327.211 43.7391 327.95 42.8127C328.7 41.8863 329.57 41.1657 330.581 40.6324C331.583 40.0989 332.472 39.6871 333.211 39.3971C333.96 39.107 334.953 38.8357 336.178 38.5924C337.404 38.3489 339.163 38.2273 341.446 38.2273C343.73 38.2273 345.949 38.714 348.11 39.6871L340.849 72.7486H340.876V72.7393Z" fill="#086FB0"/>
<path d="M295.812 20.8306H280.688L285.386 0H265.282L256.925 20.8306H205.441V20.812C202.821 20.7933 199.91 20.7652 196.7 20.7652C189.175 20.7652 183.457 22.3841 179.535 25.6314C175.614 28.8878 172.9 33.6603 171.402 39.9676L169.755 46.8081C169.437 48.5582 169.203 50.5232 169.053 52.7036C168.903 54.8841 169.184 57.1768 169.896 59.507C172.104 66.7874 177.963 70.4649 187.481 70.4649H203.214C204.374 70.4649 205.329 70.6241 206.087 71.0171C206.836 71.4102 207.004 72.505 206.583 74.3484L205.975 76.8472C205.31 79.3737 203.625 80.6557 200.902 80.6557H165.656L162.455 95.1885C163.99 96.8356 167.93 98.0333 174.285 98.81C176.784 99.1002 180.125 99.727 184.28 99.9236C188.436 100.12 191.908 100.607 194.678 100.607H206.04C210.842 100.607 215.258 99.1938 219.293 97.1538C224.13 94.627 227.398 89.3399 229.1 81.6664L231.17 72.8325C231.477 71.279 231.674 69.6789 231.787 68.1256C232.086 63.8583 231.272 60.0496 229.362 56.8492C226.667 52.3856 221.726 50.0834 214.537 50.0834H196.11C195.773 50.0834 195.549 50.0834 195.464 50.046C195.371 49.9993 195.202 49.9431 194.968 49.8495C194.725 49.7558 194.566 49.6436 194.482 49.4939C194.388 49.3536 194.238 49.1383 194.014 48.8481C193.789 48.5582 193.873 47.7347 194.257 46.3778L194.716 43.9073C195.109 42.4474 195.717 41.6707 196.541 41.0345C197.364 40.3981 198.693 40.3418 200.537 40.3418H291.759L295.953 21.1955L295.822 20.84H295.812V20.8306Z" fill="#086FB0"/>
<path d="M270.034 79.6449C269.5 78.9151 269.164 77.8762 269.015 76.5099C268.865 75.153 268.836 73.815 268.929 72.5048C269.023 71.1948 269.399 69.5197 270.044 67.0866L274.827 46.5273H250.96L245.27 71.4568C244.587 74.2735 244.165 76.8001 243.997 79.2237C243.605 84.8573 244.512 89.714 246.721 92.8208C249.895 97.3876 254.836 100.157 261.537 100.157H277.119L280.31 85.2035C279.824 85.2035 278.12 84.2771 275.201 82.9669C272.28 81.6569 270.559 80.3654 270.026 79.6356L270.034 79.6449Z" fill="#086FB0"/>
<path d="M77.0258 20.8301H62.6034C60.5913 20.8301 58.8317 22.0653 58.3638 24.0211L33.525 126.649C32.8605 129.391 34.9381 132.067 37.7645 132.067H52.1867C54.199 132.067 55.9586 130.589 56.4265 128.624L81.2653 26.1267C81.9299 23.3847 79.8522 20.8301 77.0258 20.8301Z" fill="#086FB0"/>
</g>
</svg>
