<svg width="2001" height="637" viewBox="0 0 2001 637" fill="none" xmlns="http://www.w3.org/2000/svg">
<g clip-path="url(#clip0_5462_6027)">
<path d="M1998.59 412.089C2008.78 369.906 1982.85 327.443 1940.67 317.246C1898.49 307.049 1856.03 332.978 1845.83 375.161C1835.63 417.344 1861.56 459.807 1903.74 470.004C1945.93 480.201 1988.39 454.272 1998.59 412.089Z" fill="#086FB0"/>
<path d="M1926.43 446.755H1912.77C1910.11 446.755 1908.13 444.23 1908.76 441.66L1932.29 344.462C1932.74 342.614 1934.41 341.307 1936.3 341.307H1949.96C1952.62 341.307 1954.61 343.831 1953.97 346.401L1930.44 443.599C1929.99 445.447 1928.32 446.755 1926.43 446.755Z" fill="white"/>
<path d="M1902.94 443.013C1902.94 443.013 1909.93 416.504 1910.47 414.205L1901.72 401.627C1900.82 400.32 1900.28 399.147 1898.75 399.147H1879.32C1877.2 399.147 1875.67 401.131 1876.16 403.16" fill="white"/>
<path d="M122.808 389.906H19.1184C4.60184 389.906 -4.59501 399.464 4.33134 413.845L139.85 617.663L175.194 469.387L122.808 389.906Z" fill="#086FB0"/>
<path d="M669.841 105.077L610.963 365.113C587.61 384.769 562.364 394.462 535.224 394.462C521.203 394.462 512.593 391.847 509.437 386.708C506.281 381.569 504.929 375.798 505.379 369.486C505.83 363.175 506.732 357.224 508.084 351.138L564.573 105.122H449.522L393.214 348.343C389.382 363.31 386.857 379.224 385.64 396.266C384.423 413.352 386.587 429.311 392.087 444.278C396.866 456.451 405.882 466.008 419.181 472.996C432.481 479.984 451.19 483.5 475.264 483.5C499.338 483.5 519.941 479.984 537.027 472.951C554.114 465.918 573.048 454.467 593.741 439.004L605.102 476.603H699.821L784.801 105.077H669.841Z" fill="#086FB0"/>
<path d="M1734.92 107.376C1704.04 100.839 1674.46 97.5479 1646.15 97.5479C1617.84 97.5479 1593.49 99.8921 1573.07 104.581C1560.72 106.925 1550.08 110.441 1541.11 115.085C1532.14 119.774 1522.31 126.22 1511.71 134.38C1501.07 142.585 1491.61 152.368 1483.36 163.864C1475.06 175.315 1466.95 189.606 1458.97 206.648C1450.99 223.734 1443.55 244.878 1436.65 270.124C1429.71 295.37 1425.29 322.059 1423.35 350.1C1421.41 378.142 1425.25 403.163 1434.94 425.163C1451.98 462.581 1479.43 481.291 1517.3 481.291C1538.81 481.291 1560.04 477.414 1580.92 469.704C1601.79 461.995 1617.12 452.258 1626.9 439.634L1641.91 476.557H1731.72L1804.21 141.458C1788.93 125.544 1765.89 113.913 1735.01 107.331H1734.92V107.376ZM1642.81 350.867C1627.13 374.716 1603.82 386.662 1572.94 386.662C1549.09 386.662 1538.27 371.019 1540.43 339.641C1541.42 325.17 1544.76 304.342 1550.39 277.202C1555.31 253.804 1561.71 235.816 1569.6 223.193C1573.34 216.656 1576.99 211.156 1580.55 206.693C1584.16 202.23 1588.35 198.758 1593.22 196.189C1598.05 193.619 1602.33 191.635 1605.89 190.238C1609.5 188.84 1614.28 187.533 1620.18 186.361C1626.09 185.188 1634.56 184.602 1645.56 184.602C1656.56 184.602 1667.25 186.947 1677.66 191.635L1642.68 350.912H1642.81V350.867Z" fill="#086FB0"/>
<path d="M1425.74 100.794H1352.89L1375.52 0.44043H1278.68L1238.42 100.794H990.423V100.704C977.8 100.614 963.78 100.479 948.316 100.479C912.07 100.479 884.524 108.278 865.635 123.922C846.745 139.61 833.671 162.602 826.458 192.988L818.523 225.943C816.991 234.374 815.863 243.841 815.142 254.345C814.421 264.85 815.773 275.895 819.2 287.121C829.839 322.195 858.061 339.912 903.91 339.912H979.694C985.284 339.912 989.882 340.679 993.534 342.572C997.141 344.466 997.952 349.74 995.923 358.621L992.993 370.659C989.792 382.831 981.677 389.007 968.558 389.007H798.777L783.359 459.02C790.752 466.955 809.732 472.725 840.343 476.467C852.38 477.865 868.475 480.885 888.492 481.832C908.508 482.779 925.234 485.123 938.578 485.123H993.309C1016.44 485.123 1037.71 478.316 1057.15 468.488C1080.45 456.315 1096.19 430.844 1104.39 393.876L1114.36 351.318C1115.84 343.834 1116.79 336.125 1117.33 328.642C1118.77 308.084 1114.85 289.735 1105.65 274.317C1092.67 252.813 1068.87 241.722 1034.24 241.722H945.476C943.853 241.722 942.771 241.722 942.365 241.542C941.914 241.317 941.103 241.046 939.976 240.595C938.804 240.144 938.037 239.603 937.632 238.882C937.181 238.206 936.459 237.169 935.377 235.771C934.295 234.374 934.701 230.407 936.55 223.87L938.759 211.968C940.652 204.935 943.582 201.193 947.55 198.128C951.517 195.062 957.919 194.791 966.8 194.791H1406.22L1426.42 102.552L1425.79 100.839H1425.74V100.794Z" fill="#086FB0"/>
<path d="M1301.58 384.137C1299.01 380.621 1297.39 375.616 1296.67 369.034C1295.95 362.497 1295.81 356.051 1296.26 349.739C1296.71 343.428 1298.52 335.358 1301.63 323.636L1324.67 224.59H1209.7L1182.29 344.69C1179 358.26 1176.97 370.432 1176.16 382.108C1174.27 409.248 1178.64 432.646 1189.28 447.613C1204.57 469.614 1228.37 482.958 1260.65 482.958H1335.71L1351.08 410.916C1348.74 410.916 1340.53 406.453 1326.47 400.141C1312.4 393.83 1304.11 387.608 1301.54 384.092L1301.58 384.137Z" fill="#086FB0"/>
<path d="M371.845 100.794H302.372C292.68 100.794 284.204 106.745 281.95 116.167L162.301 610.588C159.1 623.797 169.108 636.691 182.723 636.691H252.195C261.888 636.691 270.364 629.567 272.618 620.1L392.267 126.311C395.468 113.101 385.46 100.794 371.845 100.794Z" fill="#086FB0"/>
</g>
<defs>
<clipPath id="clip0_5462_6027">
<rect width="2000" height="636.25" fill="white" transform="translate(0.814941 0.439453)"/>
</clipPath>
</defs>
</svg>
