<?xml version="1.0" encoding="utf-8"?>
<!-- Generator: Adobe Illustrator 27.0.0, SVG Export Plug-In . SVG Version: 6.00 Build 0)  -->
<svg version="1.1" id="Layer_1" xmlns="http://www.w3.org/2000/svg" xmlns:xlink="http://www.w3.org/1999/xlink" x="0px" y="0px"
	 viewBox="0 0 588 108" style="enable-background:new 0 0 588 108;" xml:space="preserve">
<style type="text/css">
	.st0{fill:#231F20;}
	.st1{fill:#D50057;}
</style>
<g>
	<path class="st0" d="M29.3,75.8c0,4.5,5.1,6.7,10.3,6.7c4.8,0,9.9-2.2,9.9-6.1c0-6.2-7.2-6.5-12-6.8c-11.9-0.7-23.8-5.5-23.8-19
		c0-14.1,12-21.3,25.3-21.3c12.5,0,25.3,7.2,25,21.3H48.1c-0.1-4.5-4.3-6.3-8.8-6.3c-3.8,0-8.8,1-8.8,5.9c0,4.4,3.7,5.4,9.9,6
		c13.8,1.2,25.9,4.5,25.9,20.3c0,13.7-13.3,20.8-26.6,20.8c-13.8,0-26.9-6.9-26.7-21.5H29.3z"/>
	<path class="st0" d="M113.8,95.8v-26H93.7v26h-17V30.7h17v23.5h20.2V30.7h17v65.1H113.8z"/>
	<path class="st0" d="M174.6,97c-17.2,0-33.3-11.2-33.3-33.7c0-22.5,16.6-33.8,33.5-33.8c16.6,0,33.2,11.3,33.2,33.8
		C208.1,83.2,194.3,97,174.6,97z M174.7,80.9c8.1,0,16.4-6,16.4-17.7c0-11.6-8.1-17.7-16.2-17.7c-8.5,0-16.5,5.8-16.5,17.7
		C158.4,74.9,166.3,80.9,174.7,80.9z"/>
	<path class="st0" d="M218.7,95.7V30.6c9.7,0,19.1-0.1,28.7,0c15.6,0,23.6,12.2,23.3,24.4c0,11.9-7.9,23.8-23.3,23.8h-11.7v16.8
		H218.7z M247.4,64.1c4.5,0,7.1-4.7,7.1-9.5c0-4.6-2.4-9.2-7.1-9.2h-12v18.7H247.4z"/>
</g>
<g>
	<g>
		<polygon class="st1" points="512.5,59.8 514.3,61.6 517.3,59.8 		"/>
		<polygon class="st1" points="520.3,82.9 533.1,95.7 558.3,95.7 558.3,93.2 533.6,68.5 		"/>
		<polygon class="st1" points="500.5,75.5 494.3,69.3 470.4,93.2 470.4,95.7 495.6,95.7 508.1,83.2 		"/>
	</g>
	<path class="st1" d="M323.7,61.7c5.3,2.7,8.1,8,8.1,13.9c0,11.2-7.2,19.8-20.6,19.8h-31.3v-65h28.7c12.1,0,20.5,7.9,20.5,20
		C329.1,54.4,326.9,59.1,323.7,61.7z M296.8,45.2v10.9h10.5c3.3,0,4.9-2.5,5-5.1c0.1-2.9-1.6-5.8-5-5.8H296.8z M296.8,69.9v10.8
		h13.1c3.3,0,4.7-2.4,5-5c0.1-2-0.7-4-2.3-5.1c-0.8-0.4-1.7-0.7-2.8-0.7H296.8z"/>
	<path class="st1" d="M355.8,87.7l-3.7,8.1h-17.7v-2.3l29.8-63.4h7.8l29.6,63.4v2.3h-17.6l-3.8-8.1H355.8z M361.2,73.5h13.5
		l-6.8-15.7L361.2,73.5z"/>
	<path class="st1" d="M424.4,62.2v33.5h-17V30.5h5.3l33.9,32.1V30.7h17V96h-5L424.4,62.2z"/>
	<polygon class="st1" points="495.7,30.5 470.4,30.5 470.4,33 500.5,63.1 514.3,77 575.1,11.1 514.3,49.2 	"/>
</g>
</svg>
