<svg viewBox="0 0 31 12" fill="none" xmlns="http://www.w3.org/2000/svg">
<path d="M4.62206 0.643708L5.07788 2.04552C5.32424 1.99613 5.57853 1.97042 5.83858 1.97042C7.57745 1.97042 9.04156 3.12307 9.56548 4.70904L10.9508 4.41821C10.2897 2.14453 8.24342 0.50025 5.83858 0.50025C5.41914 0.50025 5.01221 0.549886 4.62206 0.643708Z" fill="#FBC707" stroke="black"/>
<path d="M2.88496 3.3374L1.94121 2.24068C1.04816 3.22329 0.5 4.54444 0.5 6.00003C0.5 7.45643 1.04886 8.7781 1.94248 9.76084L2.8862 8.66429C2.27409 7.95287 1.90358 7.01972 1.90358 6.00003C1.90358 4.98097 2.27361 4.04831 2.88496 3.3374Z" fill="#38A7E4" stroke="black"/>
<path d="M5.83909 10.0315C5.57887 10.0315 5.32404 10.0058 5.07718 9.95617L4.62081 11.3579C5.01127 11.4516 5.41901 11.501 5.83909 11.501C8.24166 11.501 10.2873 9.86026 10.95 7.58829L9.56475 7.29668C9.04028 8.88077 7.5772 10.0315 5.83909 10.0315Z" fill="#EF3120" stroke="black"/>
<mask id="path-4-inside-1_1542_33631" fill="white">
<path d="M18.3222 7.99356C18.3213 7.99469 18.3209 7.99514 18.3204 7.99627L18.2531 7.94926C18.0603 8.27134 17.76 8.53172 17.38 8.70055C16.6573 9.02376 15.9878 8.94081 15.5072 8.50731L15.463 8.57602L15.4621 8.57489L14.6416 9.83585C14.8452 9.98096 15.0638 10.1046 15.2935 10.2029C16.1991 10.5894 17.1259 10.5713 18.0388 10.1634C18.6988 9.86975 19.217 9.42088 19.5715 8.85221L18.3222 7.99356ZM15.7623 4.88285C15.0002 5.21984 14.6064 5.95531 14.6876 6.81826L17.9189 5.38823C17.3638 4.7165 16.6402 4.49432 15.7623 4.88285M13.617 8.72383C13.5396 8.59545 13.4348 8.38955 13.3717 8.23857C12.999 7.34873 12.981 6.42792 13.2958 5.54396C13.6419 4.57411 14.3037 3.83208 15.1576 3.45418C16.2326 2.97863 17.4207 3.07288 18.4506 3.70054C19.1042 4.08613 19.5679 4.68169 19.9202 5.52384C19.9652 5.63165 20.0041 5.74738 20.0428 5.84502L13.617 8.72383Z"/>
</mask>
<path d="M18.3222 7.99356C18.3213 7.99469 18.3209 7.99514 18.3204 7.99627L18.2531 7.94926C18.0603 8.27134 17.76 8.53172 17.38 8.70055C16.6573 9.02376 15.9878 8.94081 15.5072 8.50731L15.463 8.57602L15.4621 8.57489L14.6416 9.83585C14.8452 9.98096 15.0638 10.1046 15.2935 10.2029C16.1991 10.5894 17.1259 10.5713 18.0388 10.1634C18.6988 9.86975 19.217 9.42088 19.5715 8.85221L18.3222 7.99356ZM15.7623 4.88285C15.0002 5.21984 14.6064 5.95531 14.6876 6.81826L17.9189 5.38823C17.3638 4.7165 16.6402 4.49432 15.7623 4.88285M13.617 8.72383C13.5396 8.59545 13.4348 8.38955 13.3717 8.23857C12.999 7.34873 12.981 6.42792 13.2958 5.54396C13.6419 4.57411 14.3037 3.83208 15.1576 3.45418C16.2326 2.97863 17.4207 3.07288 18.4506 3.70054C19.1042 4.08613 19.5679 4.68169 19.9202 5.52384C19.9652 5.63165 20.0041 5.74738 20.0428 5.84502L13.617 8.72383Z" fill="#231F20"/>
<path d="M18.3222 7.99356L17.533 7.3794L18.1118 6.63558L18.8886 7.16945L18.3222 7.99356ZM18.3204 7.99627L19.2523 8.3589L18.7908 9.54494L17.7476 8.81598L18.3204 7.99627ZM18.2531 7.94926L17.3951 7.4356L17.9463 6.51493L18.8259 7.12955L18.2531 7.94926ZM17.38 8.70055L16.9718 7.78768L16.9739 7.78672L17.38 8.70055ZM15.5072 8.50731L14.6662 7.96636L15.3029 6.97636L16.177 7.76473L15.5072 8.50731ZM15.463 8.57602L16.3041 9.11697L15.5407 10.3039L14.6739 9.19023L15.463 8.57602ZM15.4621 8.57489L14.624 8.02947L15.3894 6.85327L16.2513 7.96067L15.4621 8.57489ZM14.6416 9.83585L14.0612 10.6502L13.2806 10.0939L13.8034 9.29044L14.6416 9.83585ZM15.2935 10.2029L14.901 11.1227L14.9001 11.1223L15.2935 10.2029ZM18.0388 10.1634L17.6308 9.25037L17.6323 9.24967L18.0388 10.1634ZM19.5715 8.85221L20.1379 8.0281L20.9259 8.56969L20.4201 9.38115L19.5715 8.85221ZM14.6876 6.81826L15.0922 7.73271L13.822 8.29487L13.6919 6.91186L14.6876 6.81826ZM17.9189 5.38823L18.6898 4.75117L19.5306 5.76855L18.3236 6.30268L17.9189 5.38823ZM13.617 8.72383L14.0259 9.63643L13.2178 9.99847L12.7606 9.24012L13.617 8.72383ZM13.3717 8.23857L14.294 7.85227L14.2943 7.85295L13.3717 8.23857ZM13.2958 5.54396L12.3538 5.20843L12.354 5.20788L13.2958 5.54396ZM15.1576 3.45418L14.753 2.53972L14.7531 2.53967L15.1576 3.45418ZM18.4506 3.70054L17.9425 4.56185L17.9363 4.55819L17.9301 4.55445L18.4506 3.70054ZM19.9202 5.52384L20.8427 5.13799L20.8428 5.13812L19.9202 5.52384ZM20.0428 5.84502L20.9725 5.47658L21.3251 6.36632L20.4517 6.75762L20.0428 5.84502ZM19.1114 8.60772C19.1088 8.61097 19.1068 8.61352 19.1062 8.61428C19.1048 8.61606 19.1068 8.6135 19.1083 8.61159C19.1114 8.60766 19.1256 8.58968 19.1423 8.56563C19.1608 8.53891 19.182 8.5057 19.203 8.46629C19.2238 8.42732 19.2399 8.39094 19.2523 8.3589L17.3885 7.63365C17.4012 7.60105 17.4175 7.56419 17.4385 7.52478C17.4597 7.48493 17.4811 7.45132 17.5 7.42421C17.517 7.39976 17.5314 7.38139 17.5348 7.37702C17.5365 7.37489 17.5387 7.3721 17.5375 7.37363C17.5371 7.37415 17.5353 7.37644 17.533 7.3794L19.1114 8.60772ZM17.7476 8.81598L17.6804 8.76897L18.8259 7.12955L18.8932 7.17657L17.7476 8.81598ZM19.1111 8.46293C18.8032 8.97733 18.337 9.36958 17.7861 9.61438L16.9739 7.78672C17.1829 7.69386 17.3175 7.56535 17.3951 7.4356L19.1111 8.46293ZM17.7883 9.61342C16.7772 10.0656 15.6671 9.99822 14.8375 9.24988L16.177 7.76473C16.3086 7.8834 16.5375 7.98192 16.9718 7.78768L17.7883 9.61342ZM16.3483 9.04826L16.3041 9.11697L14.622 8.03507L14.6662 7.96636L16.3483 9.04826ZM14.6739 9.19023L14.673 9.1891L16.2513 7.96067L16.2522 7.9618L14.6739 9.19023ZM16.3003 9.1203L15.4798 10.3813L13.8034 9.29044L14.624 8.02947L16.3003 9.1203ZM15.222 9.02151C15.3689 9.12622 15.525 9.21424 15.6869 9.28355L14.9001 11.1223C14.6025 10.9949 14.3215 10.8357 14.0612 10.6502L15.222 9.02151ZM15.686 9.28316C16.3259 9.55624 16.9624 9.54905 17.6308 9.25038L18.4468 11.0763C17.2893 11.5936 16.0724 11.6226 14.901 11.1227L15.686 9.28316ZM17.6323 9.24967C18.1186 9.03338 18.479 8.71446 18.7228 8.32328L20.4201 9.38115C19.9551 10.1273 19.279 10.7061 18.4452 11.077L17.6323 9.24967ZM19.005 9.67633L17.7557 8.81768L18.8886 7.16945L20.1379 8.0281L19.005 9.67633ZM16.1667 5.79741C15.8387 5.94244 15.638 6.24385 15.6832 6.72465L13.6919 6.91186C13.5749 5.66678 14.1617 4.49725 15.3578 3.96828L16.1667 5.79741ZM14.2829 5.9038L17.5142 4.47377L18.3236 6.30268L15.0922 7.73271L14.2829 5.9038ZM17.1481 6.02528C16.9718 5.81194 16.8239 5.73457 16.7167 5.70749C16.6143 5.68162 16.444 5.67469 16.167 5.7973L15.3576 3.9684C15.9584 3.70248 16.5889 3.61237 17.2065 3.7684C17.8194 3.9232 18.3109 4.29279 18.6898 4.75117L17.1481 6.02528ZM12.7606 9.24012C12.6579 9.06968 12.5309 8.82008 12.449 8.62419L14.2943 7.85295C14.3386 7.95902 14.4214 8.12123 14.4734 8.20755L12.7606 9.24012ZM12.4493 8.62487C11.9797 7.5036 11.956 6.32535 12.3538 5.20843L14.2378 5.87949C14.006 6.53049 14.0183 7.19385 14.294 7.85227L12.4493 8.62487ZM12.354 5.20788C12.7819 4.00848 13.6216 3.04038 14.753 2.53972L15.5623 4.36864C14.9857 4.62379 14.5018 5.13973 14.2376 5.88003L12.354 5.20788ZM14.7531 2.53967C16.1419 1.92527 17.6749 2.05672 18.971 2.84663L17.9301 4.55445C17.1665 4.08904 16.3233 4.03199 15.5622 4.36868L14.7531 2.53967ZM18.9587 2.83923C19.8465 3.36296 20.4319 4.15568 20.8427 5.13799L18.9976 5.9097C18.704 5.2077 18.362 4.8093 17.9425 4.56185L18.9587 2.83923ZM20.8428 5.13812C20.874 5.21276 20.9011 5.28549 20.9218 5.34133C20.945 5.40407 20.9587 5.44166 20.9725 5.47658L19.1132 6.21345C19.0333 6.01184 19.0525 6.04091 18.9975 5.90956L20.8428 5.13812ZM20.4517 6.75762L14.0259 9.63643L13.2082 7.81123L19.634 4.93242L20.4517 6.75762Z" fill="black" mask="url(#path-4-inside-1_1542_33631)"/>
<path d="M22.0963 9.06862L21.7885 8.94046V8.60703V2.09634H21.2729V8.62624C21.2729 8.91159 21.3433 9.09991 21.4188 9.22306C21.5131 9.36167 21.6224 9.46561 21.7766 9.53515L22.4789 9.8352L22.6947 9.31775L22.0963 9.06862Z" fill="#231F20" stroke="black"/>
<path d="M24.5351 6.82088C24.5355 6.25842 24.7193 5.73775 25.0296 5.32001L24.5962 4.82353C24.1663 5.36678 23.9077 6.0608 23.9067 6.82027C23.9058 7.57988 24.1635 8.27433 24.5932 8.81853L25.0261 8.32084C24.7174 7.90296 24.5347 7.38285 24.5351 6.82088Z" fill="#231F20" stroke="black"/>
<path d="M26.9667 9.31054L26.9673 9.31054C27.9766 9.31152 28.8326 8.68725 29.2044 7.80827L29.8358 7.94061C29.3954 9.14274 28.2695 9.9865 26.967 9.98535L26.9667 9.31054ZM26.9667 9.31054C26.8728 9.31034 26.7802 9.30465 26.6893 9.29384M26.9667 9.31054L26.6893 9.29384M26.6893 9.29384L26.4764 9.94461C26.636 9.97122 26.7998 9.98515 26.9669 9.98535L26.6893 9.29384Z" fill="#231F20" stroke="black"/>
<path d="M26.9723 3.66016L26.9721 3.66016C26.8054 3.65997 26.642 3.67357 26.4828 3.69984L26.6938 4.35075C26.7848 4.34008 26.8774 4.33452 26.9713 4.33452L26.972 4.33452C27.9829 4.33574 28.8392 4.96325 29.2079 5.84529L29.8388 5.7136C29.4023 4.50888 28.2771 3.66102 26.9723 3.66016Z" fill="#231F20" stroke="black"/>
</svg>
